<svg width="49" height="45" viewBox="0 0 49 45" fill="none" xmlns="http://www.w3.org/2000/svg">
<path d="M24.5 0C10.9657 0 0 10.0706 0 22.5C0 34.9294 10.9657 45 24.5 45C38.0343 45 49 34.9294 49 22.5C49 10.0706 38.0343 0 24.5 0ZM30.1409 31.7631L21.4276 25.9476C21.1214 25.7389 20.9435 25.4123 20.9435 25.0675V9.79839C20.9435 9.1996 21.477 8.70968 22.129 8.70968H26.871C27.523 8.70968 28.0565 9.1996 28.0565 9.79839V22.2913L34.3296 26.4829C34.8631 26.8367 34.9718 27.5171 34.5865 28.0071L31.8006 31.5272C31.4153 32.0081 30.6744 32.1169 30.1409 31.7631Z" fill="black" fill-opacity="0.69"/>
</svg>
