<?xml version="1.0" encoding="UTF-8"?>
<svg version="1.1" viewBox="0 0 1408 1428" width="352" height="357" xmlns="http://www.w3.org/2000/svg">
<path transform="translate(693,313)" d="m0 0 40 2 34 3 31 5 38 9 27 8 25 9 35 15 16 8 26 14 21 13 16 11 19 14 16 13 11 9 13 12 8 7 21 21 9 11 9 10 11 14 12 16 12 17 13 21 15 27 13 26 12 29 8 21 10 34 6 26 4 20 4 27 3 31 1 16v51l-3 32-4 27-7 35-9 32-10 30-10 24-8 18-10 20-13 23-15 24-12 16-8 11-10 13-12 14-12 13-9 10-19 19-8 7-15 13-14 11-16 12-24 16-25 15-26 14-23 11-27 11-31 10-44 11-34 6-31 4-28 2h-46l-27-2-30-4-22-4-39-9-30-9-30-11-33-15-25-13-17-10-22-14-18-13-16-12-17-14-16-15-10-10-6-5-7-8-9-9-7-8-11-13-15-20-14-19-13-21-12-21-14-27-11-24-11-29-7-21-7-27-7-33-5-34-3-30-1-22v-45l4-36 6-36 7-31 11-36 9-24 9-21 12-25 14-26 15-24 11-16 20-26 9-11 9-10 7-8 30-30 8-7 15-13 17-13 21-16 19-12 24-14 18-10 21-10 29-12 24-9 23-7 33-8 26-5 22-3 38-3zm-155 402-10 5-6 9-1 3v15l4 10 7 6 8 3 11 1 9-3 7-6 5-9 1-4v-11l-3-8-4-5-7-5-3-1z" fill="#57C7E8"/>
<path transform="translate(693,313)" d="m0 0 40 2 34 3 31 5 38 9 27 8 25 9 35 15 16 8 26 14 21 13 16 11 19 14 16 13 11 9 13 12 8 7 21 21 9 11 9 10 11 14 12 16 12 17 13 21 15 27 13 26 12 29 8 21 10 34 6 26 4 20 4 27 3 31 1 16v51l-3 32-4 27-7 35-9 32-10 30-10 24-8 18-10 20-13 23-15 24-12 16-8 11-10 13-12 14-12 13-9 10-19 19-8 7-15 13-14 11-16 12-24 16-25 15-26 14-23 11-27 11-31 10-44 11-34 6-31 4-28 2h-46l-27-2-30-4-22-4-39-9-30-9-30-11-33-15-25-13-17-10-22-14-18-13-16-12-17-14-16-15-10-10-6-5-7-8-9-9-7-8-11-13-15-20-14-19-13-21-12-21-14-27-11-24-11-29-7-21-7-27-7-33-5-34-3-30-1-22v-45l4-36 6-36 7-31 11-36 9-24 9-21 12-25 14-26 15-24 11-16 20-26 9-11 9-10 7-8 30-30 8-7 15-13 17-13 21-16 19-12 24-14 18-10 21-10 29-12 24-9 23-7 33-8 26-5 22-3 38-3zm-18 27-29 2-33 4-20 3-18 4-21 6-30 9-25 10-16 7-16 8-19 10-23 13-14 9-8 7-1 2 1 14 3 15 2 19v41l-3 24-5 24-6 21-10 25-10 20-14 24-13 22-10 16-15 27-11 24-7 20-4 15-3 20v16l2 15 8 24 12 23 12 17 15 20 10 14 11 19 9 16 8 17 8 22 6 23 4 21 3 26v33l-3 25-4 20-8 28-9 22-8 16-7 13v6l5 5 8 7 18 13 28 18 13 8 21 12 5 2 11-1 36-11 36-14 38-20 15-10 17-12 13-10 3-2v-2l4-2 16-15 13-12 14-14 11-9 17-13 17-10 12-5 9-3 9-2 10-1h11l20 2 16 4 24 10 15 9 11 8 9 7 13 11 13 12 8 7 16 15 12 11 11 9 12 10 19 13 6 3h6l11-7 16-13 10-8 4-3v-2l4-2 10-9 6-5v-2h2v-2l4-2 8-8v-2h2l7-8 11-12 7-8 11-14 11-15 19-28 6-11 6-9 22-44 15-39 9-29 6-24 5-26 1-7v-11l-5-2-42-6-54-12-48-12-51-12-21-5-59-14-28-7-23-7-17-4-10-1-12-4-10-5-10-8-8-7h-2l-1-3-11-8-14-12-8-7-11-11-9-11-3-4h-2l-2-5-10-14-9-16-10-21-7-20-5-19-4-22-2-21v-16l2-24 4-24 7-24 9-24 10-19 9-15 10-14 13-16 10-11 9-11 9-10 9-11 13-19 6-10 4-11-1-5-11-4-26-5-34-4-28-2z" fill="#06362F"/>
<path transform="translate(840,362)" d="m0 0 6 1 38 13 14 6 16 8 17 9 16 8 26 15 12 9 18 13 16 13 11 9 7 7 8 7 31 31 7 8 10 12 4 5v2h2l24 34 13 22 9 15 11 21 9 20 6 16 10 28 9 31 8 37 4 29 3 35 1 17v23l-1 21-2 7-5 1-37-6-63-14-46-11-148-36-3-1v-2l12-9 9-11 6-10 5-13 2-12v-14l-3-15-7-16-7-11-11-11-13-8-12-5-15-3h-18l-14 3-16 8-9 7-6 5-9 13-7 14-4 15-2 15-5-5-9-10-11-14-8-11-9-15-8-17-7-20-7-26-3-18-1-13v-20l3-24 5-22 7-23 8-19 10-18 10-15 8-10 9-11 11-12 9-11 8-9 8-10 10-14 9-16z" fill="#A4CC45"/>
<path transform="translate(1063,891)" d="m0 0 9 1 40 10 41 9 42 6 5 2v11l-5 28-5 21-9 31-9 25-7 16-3 8-15 30-7 13-9 14-5 9-13 19-8 11-9 12-9 11-10 11-7 8-6 7h-2l-2 4-8 8h-2v2h-2v2l-8 7-10 9h-2v2l-11 9-16 13-14 9h-6l-12-7-15-11-10-8-14-12-16-15-24-22-8-7-14-12-10-7-15-10-16-8-15-6-16-4-20-2h-11l-14 2-11 3-13 5-16 9-19 14-10 9-8 7-16 16-8 7-15 14h-2v2l-20 15-13 9-17 11-20 11-21 10-26 10-24 8-17 5-11 1-16-8-17-10-17-11-11-7-17-12-12-9-5-4-3-4v-6l12-23 6-13 8-21 7-25 4-22 2-20v-33l-4-32-5-23-7-24-9-22-11-21-13-22-8-11-3-4v-2h3l5 7v3l3 1 8 13 10 17 10 19 6 16 7 21 2 9 3 9 5 26v17h2l3 7 1 3 6 1 2 2 8 3 12 5 11 4 21 6 21 7 28 7 37 8 29 4 40 2h24l30-1 38-5 28-6 22-5 31-9 27-9 28-11 27-13 23-13 19-12 12-8 11-8h2v-2l9-6 14-12 11-9 3-1v-2l7-6h2v-2l8-6 11-11h2v-2h2l2-4 11-11 6-8h2l2-4 11-13 5-7h2v-2h2l2-5 4-6 7-10 5-5v-2l-12-3v-2l-5-1z" fill="#4AB1C9"/>
<path transform="translate(379,451)" d="m0 0 4 1 1 2 3 31 1 19-2 24-3 21-7 28-9 25-14 28-14 24-14 23-16 27-14 27-8 20-7 24-3 13-1 15v22l1 13 9 29 8 16 13 22 16 21 12 17 9 13 12 20 10 23 8 25 6 26 4 34v12l-2 23-3 21-6 25-8 22-9 21-8 14-4-1-27-27-9-11-12-14-13-17-8-11-10-15-13-21-8-15-15-30-13-32-11-33-7-27-5-23-5-34-3-32-1-19v-41l3-32 6-36 7-30 8-27 11-31 13-30 11-22 14-24 11-17 9-13 14-19 10-13 13-14 7-8 29-29 8-7 16-13z" fill="#A4CC45"/>
<path transform="translate(761,1162)" d="m0 0h29l19 5 16 8 14 8 16 12v2l4 2 12 11 10 9 16 15 13 12 20 18 5 3v2l5 2 10 7 6 4-1 4-9 6-20 11-23 11-26 11-18 7-19 6-32 8-11 3-23 4-20 3-37 3h-34l-30-2-14-1-27-4-25-5-21-5-28-8-24-8-5-3 2-4 20-7 14-6 10-4 12-5 19-11 11-6 18-12 19-14 11-9 13-11 10-9 8-7 18-18 8-7 10-8 10-7 14-8 13-5z" fill="#518D43"/>
<path transform="translate(379,451)" d="m0 0 4 1 1 2 3 31 1 19-2 24-3 21-7 28-9 25-11 22-1-4 7-15 4-9 4-11 4-13 3-13 1-2 3-21v-16l1-22-2-19-1-19-3-1-13 10-7 7h-2l-1 3h-2v2l-8 7-17 17-7 8-3 1-2 4-9 9-7 10-9 10-4 8-4 5h-2l-2 6-6 8-5 9-7 10-1 3h-2l-1 4-6 11-8 16-5 12-12 25-3 8-3 10-3 7-4 11-2 8-3 11-3 9-1 8-2 4-3 16-4 24-1 3-3 33v33l1 15 10 23 6 9 3 6v2l3 1 9 14 2 5h2l7 10v2h2v2h2l4 7 5 5 2 4 3 1 3 5 2 4h2v2h2l4 5 2 1v2h2l3 4v2l3 1v2l4 2 13 12 6 5v2l4 2 10 8 3 2v2l4 1 1 3 4 1 3 2v2h3v2l4 1 6 6 3 1v2l4 1 6 3v2l4 1 7 4 6 5v2l5 2 3 1v-10l-4-19-4-14-3-6-4-13-3-5-3-7-8-16-6-10-5-9-15-22-8-10-20-30-10-20-5-17 2-4 8 24 10 18 11 18 14 18 12 17 9 13 12 20 10 23 8 25 6 26 4 34v12l-2 23-3 21-6 25-8 22-9 21-8 14-4-1-27-27-9-11-12-14-13-17-8-11-10-15-13-21-8-15-15-30-13-32-11-33-7-27-5-23-5-34-3-32-1-19v-41l3-32 6-36 7-30 8-27 11-31 13-30 11-22 14-24 11-17 9-13 14-19 10-13 13-14 7-8 29-29 8-7 16-13z" fill="#8BB441"/>
<path transform="translate(593,928)" d="m0 0 17 2 38 7 24 3 22 2 33-3 29-4 26-5 6-1h13l8 7 2 5-1 16-4 22-6 20-6 16-8 16-7 12-13 16-11 10-16 10-17 6-9 2h-33l-16-3-13-5-12-7-14-12-9-10-10-15-8-16-7-18-5-18-5-22-1-8v-13l3-6 7-5z" fill="#06362F"/>
<path transform="translate(443,107)" d="m0 0h13l19 4 16 8 11 9 10 10 9 13 8 16 6 19 4 20v25l-4 15-7 13-10 12-11 8-14 7-13 4h-30l-15-5-15-8-10-8-11-11-9-13-7-14-7-21-3-16v-27l4-14 6-12 8-10 7-7 13-8 16-6zm4 56-11 4-7 7-3 8-1 4v12l3 12 6 11 5 6 10 6 7 2h10l10-4 8-8 3-10v-13l-3-12-6-11-5-6-8-5-9-3z" fill="#07372F"/>
<path transform="translate(1207,258)" d="m0 0h10l10 5 5 7 2 7v8l-4 16-9 20-12 25-1 7v2l6 2 7-4 12-13 13-13 10-8 11-5h7l8 4 7 7 3 6 1 9-4 13-8 14-11 14-12 14-10 10-7 8-11 11-8 7-11 10-14 10-12 6-4 1h-14l-9-6-5-8-1-3v-11l4-17 16-38 1-4v-8l-4-4-7 2-12 13-1 2h-2l-2 4-8 8-11 9-6 4-3 1h-9l-6-4-4-5-3-9 1-11 5-13 9-14 12-16 28-30 8-8 8-7 12-11 13-9 13-6z" fill="#07372F"/>
<path transform="translate(1069,167)" d="m0 0h13l14 4 9 6 5 4 7 11 4 9 2 9v25l-3 16-6 22-9 22-8 17-10 18-10 13-9 8-9 4h-12l-8-4-5-7-1-4v-11l3-12-1-9-9-8-10-4-6 1-10 8-8 6-7 3h-9l-10-4-7-8-2-5v-13l6-16 15-24 8-11 10-14 9-10 12-13 11-10 14-9 12-6zm-4 58-8 4-8 8-7 8-6 9-1 6 3 6 6 5 8 3h5l7-6 6-12 5-16v-8l-4-6z" fill="#07372F"/>
<path transform="translate(521,687)" d="m0 0h20l14 3 12 5 11 7 13 13 8 13 5 11 3 12v26l-6 18-6 10-9 11-4 4h-2v2l-14 9-12 5-14 3h-16l-15-3-13-5-13-9-11-10-8-13-6-15-2-7-1-8v-12l3-15 4-13h2l2-6 10-13 10-9 16-9 13-4zm17 28-10 5-6 9-1 3v15l4 10 7 6 8 3 11 1 9-3 7-6 5-9 1-4v-11l-3-8-4-5-7-5-3-1z" fill="#06362F"/>
<path transform="translate(840,362)" d="m0 0 6 1 38 13 14 6 16 8 17 9 16 8 26 15 12 9 18 13 16 13 11 9 7 7 8 7 31 31 7 8 10 12 4 5v2h2l24 34 13 22 9 15 11 21 9 20 6 16 10 28 9 31 8 37 4 29 3 35 1 17v23l-1 21-2 7-5 1-37-6-63-14-46-11-33-8v-1l10 1 23 5 12 3 10 2 7 2 9 1 7 1 2-5 7-14 10-21 10-22 6-17 6-16 7-22 3-13 2-5 6-29 5-37v-9l-3-10-4-11-6-12v-2h-2l-4-8-5-9-3-7-5-7-1-5h-2l-4-8-5-6-5-8v-2h-2l-3-6-3-4v-2h-2l-1-4h-2l-3-5-3-3-3-5-3-4v-2h-2l-6-8-6-5-7-8-1-3h-2l-7-8-3-3v-2h-2v-2h-2l-4-5-2-1v-2l-4-2-14-13-10-8-14-11-16-13-11-7-20-12-14-8-11-6-16-8-11-5-4-1v-2l-5-1-24-10-11-3-7-3-9-4-6 11h-2l-3 10-4 7-3 1 2-5z" fill="#8BB441"/>
<path transform="translate(903,98)" d="m0 0h19l18 5 24 10 14 9 6 8 2 5v9l-4 10-7 8-3 1h-23l-21-5h-10l-5 4-2 5 1 6 3 3 10 4 16 5 8 4 4 6v8l-5 10-4 3-3 1h-8l-15-4-8-2h-7l-5 5-1 2v6l4 4 18 6 16 6 10 9 2 5v10l-6 12-5 4-5 2-6 1h-15l-13-2-17-4-16-6-10-7-6-9-3-9-1-5v-16l3-17 8-30 12-36 7-16 7-11 10-11z" fill="#07372F"/>
<path transform="translate(159,282)" d="m0 0h13l8 4 7 8 2 5v10l-3 7-8 11-9 9-7 11-1 9 4 7 3 2h7l4-3h2l2-4 14-15 8-5h6l9 6 3 5v11l-4 6-12 12-5 8-1 7 3 6 4 2h7l8-6 3-4h2l2-4 11-11 10-6h9l8 4 6 7 3 7v10l-4 11-7 11-8 10-11 12-9 8-13 6-4 1h-7l-12-3-15-8-13-10-13-12-8-7-9-9-2-1v-2l-4-2-14-15-10-12-8-13-4-10-1-4v-7l3-10 7-11 5-6h2l2-4 4-4h2l1-3 8-7 13-10z" fill="#07372F"/>
<path transform="translate(625,66)" d="m0 0h26l14 4 9 6 6 8 3 8v10l-4 10-6 5-2 1h-8l-14-3h-14l-8 4-6 7-5 13-1 5v21l4 16 6 11 8 8 10 4 8-1 9-4 16-11 5-2h11l5 3 4 10v16l-3 10-6 9-10 9-12 6-16 3h-14l-14-2-15-6-13-9-12-12-7-10-8-16-5-15-3-19v-24l2-14 5-17 6-11 8-10 7-7 13-8 14-5z" fill="#07372F"/>
<path transform="translate(284,185)" d="m0 0h14l8 3 8 7 5 10 1 7-2 7-5 5-9 3-10 2-10 5-6 7-2 6v17l5 15 7 13 9 10 11 7 11 4h10l10-5 5-6 11-22 7-6 8-1 7 3 6 7 5 12 1 4v14l-3 11-6 10-7 8-10 7-12 6-15 4-11 2-10-1-15-3-13-5-13-7-10-8-12-12-10-14-10-18-6-15-3-13-1-13 3-16 4-10 5-9 9-10 7-7 11-7 13-6z" fill="#07372F"/>
<path transform="translate(752,68)" d="m0 0h12l8 3 5 6 3 10v21l-2 23-4 38v17l4 11 3 3 35 7 8 5 4 5 2 5v7l-4 11-7 7-10 4-10 2-18 1-28-3-11-4-8-6-6-7-5-13-2-10v-36l5-45 4-26 4-15 7-14 6-5z" fill="#07372F"/>
<path transform="translate(676,978)" d="m0 0h38l26 3 21 6 6 3v10l-7 18-5 9-5 8h-2l-2 4-4 4h-2v2l-13 9-12 5-12 3h-16l-16-4-11-6-10-7v-2l-4-2-8-10-8-13-7-19v-8l7-5 24-6z" fill="#F29D9B"/>
<path transform="translate(906,944)" d="m0 0h31l17 3 14 4 12 7 10 9 5 8v7l-5 7-11 9-14 8-13 4-23 4h-18l-18-3-14-4-17-7-10-6-5-8-1-11 5-10 9-7 13-6 12-4 14-3z" fill="#F39E9A"/>
<path transform="translate(458,944)" d="m0 0h26l14 2 20 6 10 5 10 9 5 6 1 9-6 9-7 7-16 9-17 5-16 3h-25l-17-3-16-5-13-6-10-7-4-6-1-3v-10l4-7 10-9 14-7 19-5z" fill="#F39E9B"/>
<path transform="translate(1112,903)" d="m0 0 9 1 32 7 42 6 5 2v11l-5 28-5 21-9 31-9 25-7 16-3 8-15 30-7 13-9 14-5 9-13 19-8 11-9 12-9 11-10 11-7 8-6 7h-2l-2 4-8 8h-2v2h-2v2l-8 7-10 9h-2v2l-11 9-16 13-14 9h-6l-12-7-15-11-10-8-14-12-16-15-24-22-8-7-14-12-10-7-15-10-16-8-15-6-16-4-20-2h-11l-14 2-11 3-13 5-4 1 1-3 7-3h4v-2h2v-2l14-4 18-1h26l9 2 8 1 6 2v2l8 1 8 5 8 4v2l4 1 14 9v2l4 1 7 5v2h2v2h3v2l4 2 13 12 7 5 1 2 5 3v2l4 2 3 2v2l4 2v2l4 2v2l4 2 9 8 3 2v2l3 1v2l4 1 5 5 4 3v2l6 2 5 4 10 6 10 4h5l1-3 6-3 5-5 10-8h2l1-3h3l2-4 4-2v-2h2v-2l5-2 2-4 5-3 6-7 8-7 4-5 6-5 7-8 5-5 2-4h2l2-4h2l2-5 9-10 4-5 1-3h2l2-5 3-4h2v-3h2l2-5 1-2h2l1-4h2l1-4 7-10 4-6 1-3h2l2-5 8-16h2l1-5 8-16 4-7 4-10 2-6h2l1-7 3-7 2-6 5-13 5-17 1-8 2-2 2-11 2-5 4-18 2-16-1-8-8-3-38-7-34-8z" fill="#3E9EB0"/>
<path transform="translate(675,340)" d="m0 0h41l36 3 26 3 26 5 11 4 1 5-6 15-10 15-8 11-11 13-7 8-12 14-9 10-7 9-1-2 4-7 3-4 4-7 12-13 5-7h2l2-4 14-18 7-11 9-17v-5l-6-3-24-4-26-3-26-2-16-1h-31l-20 1-36 4-15 2-29 6-20 5-21 6-25 9-20 8-44 22-17 9-10 7-5 4-5 3-3 5 1 11 4 33v38l-3 22-3 18-4 11-1 3-1 8-2 7h-2l-1 10-5 12-2 1-4 10-3 1 2-6 8-20 5-16 5-18 4-21 2-19v-41l-3-25-3-17v-6l6-7 17-11 25-14 19-10 23-11 19-8 20-7 32-10 22-5 15-3 27-4 31-3z" fill="#3D9FB7"/>
<path transform="translate(843,618)" d="m0 0h18l18 2 21 6 21 10 15 11 7 8v8l-5 6-4 2-7-1-21-14-13-6-16-5-14-2h-13l-19 2-7 2h-10l-5-4-2-4v-7l8-7 11-4z" fill="#06362F"/>
<path transform="translate(345,917)" d="m0 0h3l5 7v3l3 1 8 13 10 17 10 19 6 16 7 21 2 9 3 9 5 26 1 17 2 10v23l-2 25-2 10-5 24-2 4-3 13-5 14-11 24-5 11v7l6 5v2h2v2l4 1 10 8 2 1v2h3v2h3v2l5 2v2l4 1 8 5v2l6 2 10 7 21 12 12 1 15-4 14-4 24-9 7-2 10-5 9-4 22-11 9-5 5-3 7-5 7-4 15-10 5-3h2v-2l6-4h2v-2l11-9 3-1 2-4h2l2-4 8-7 7-7h2v-2l11-9 10-9 11-8 10-7 3-2 4 1-12 8-13 10-15 13-18 18-8 7-15 14h-2v2l-20 15-13 9-17 11-20 11-21 10-26 10-24 8-17 5-11 1-16-8-17-10-17-11-11-7-17-12-12-9-5-4-3-4v-6l12-23 6-13 8-21 7-25 4-22 2-20v-33l-4-32-5-23-7-24-9-22-11-21-13-22-8-11-3-4z" fill="#3DA0B9"/>
<path transform="translate(528,619)" d="m0 0h19l22 4 10 4 3 3 1 8-3 6-4 3-12-1-15-3h-29l-17 4-16 6-15 10-8 6-2 1h-7l-7-6-1-6 3-6 7-7 15-10 20-9 18-5z" fill="#06362F"/>
<path transform="translate(838,714)" d="m0 0h11l9 4 7 6 3 5 1 4v14l-2 6h-2l-1 4-5 5-6 3h-17l-8-4-6-7-3-6v-16l6-10 8-6z" fill="#FAFCFB"/>
<path transform="translate(685,344)" d="m0 0h18l39 2 17 2 29 4 16 3 7 4-1 7-7 14-9 13-2 6-3 6-8 9-7 8-12 14-9 10-7 9-1-2 4-7 3-4 4-7 12-13 5-7h2l2-4 14-18 7-11 9-17v-5l-6-3-24-4-26-3-26-2-16-1h-31l-20 1-36 4-15 2-29 6-20 5-21 6-25 9-20 8-44 22-17 9-10 7-5 4-5 3-3 5 1 11 4 33v38l-3 22-3 18-4 11-1 3-1 8-2 7h-2l-1 10-5 12-2 1-4 10-3 1 2-6 8-20 5-16 5-18 4-21 1-9h2l1-22v-17l-2-23-3-22-1-4v-12l7-6 18-11 10-6 9-5 6-1 12-6 23-11 11-5 24-9 24-8 17-5 22-5 15-3 37-5 22-2z" fill="#4BB2CA"/>
<path transform="translate(840,362)" d="m0 0 6 1 38 13 14 6 16 8 17 9 16 8 26 15 12 9 18 13 16 13 11 9 7 7 8 7 31 31 7 8 10 12 4 5v2h2l24 34 13 22 9 15 11 21 9 20 6 16 10 28 9 31 8 37 4 29 3 35 1 17v23l-1 21-2 7-5 1-37-6-19-4v-1l14 1 14 3 16 2 13 2 2-9 2-23v-11l-3-49-6-42-8-36-10-32-6-18-7-19-9-21-8-16-8-14-14-23-16-24-10-13-7-9-13-15-12-13-5-5v-2h-2v-2h-2v-2h-2v-2l-4-2-16-16-11-9-15-13-18-14-10-7-20-13-11-6-20-11-16-8-26-12-18-7-23-8-6-2z" fill="#518D43"/>
<path transform="translate(214,677)" d="m0 0 1 3-10 31-8 31-6 34-3 23-2 23v27l2 32 3 31 4 28 5 25 7 27 13 39 7 17 10 22 12 22 7 12 5 9 12 19 9 13v2h2l3 5 13 16 8 10 6 7v2h2l7 8 15 16 6 6h5l2-5 7-15 7-17 5-15 7-28 4-31v-26l-2-13-1-21 2 4 4 34v12l-2 23-3 21-6 25-8 22-9 21-8 14-4-1-27-27-9-11-12-14-13-17-8-11-10-15-13-21-8-15-15-30-13-32-11-33-7-27-5-23-5-34-3-32-1-19v-41l3-32 6-36 7-30 8-27z" fill="#518D43"/>
<path transform="translate(1160,913)" d="m0 0 13 1 22 3 5 2v11l-5 28-5 21-9 31-9 25-7 16-3 8-15 30-7 13-9 14-5 9-13 19-8 11-9 12-9 11-10 11-7 8-6 7h-2l-2 4-8 8h-2v2h-2v2l-8 7-10 9h-2v2l-11 9-16 13-14 9h-6l-12-7-15-11-10-8-14-12-3-4 4 2 10 9 17 13 10 7 12 7 6 1 13-9 10-8 12-9 12-11 8-7 32-32 9-11 3-4h2l2-4 8-10 14-19 10-15 9-14 11-19 11-21 5-10 6-15 5-11 10-28 10-34 6-26 4-23v-5l-12-3-26-4z" fill="#518D43"/>
<path transform="translate(675,340)" d="m0 0h41l36 3 26 3 26 5 11 4 1 5-5 12-1-2 3-8v-6l-17-4-25-4-27-3-27-2h-43l-41 3-30 4-28 6-22 6-36 12-25 10-8 4-23 11-22 12-14 8-15 10-5 4v12l3 17 2 16 1 16v17l-2 22h-1v-51l-3-25-3-17v-6l6-7 17-11 25-14 19-10 23-11 19-8 20-7 32-10 22-5 15-3 27-4 31-3z" fill="#518D43"/>
<path transform="translate(379,451)" d="m0 0 4 1 1 2 3 31 1 19-2 24-3 21-7 28-9 25-11 22-1-4 7-15 4-9 4-11 4-13 3-13 1-2 3-21v-16l1-22-2-19-1-19-3-1-9 7-5 1-12 11-8 7-22 22-7 8-9 10-11 14-5 6v-3l12-16 14-15 7-8 29-29 8-7 16-13z" fill="#8CB541"/>
<path transform="translate(404,1061)" d="m0 0h1l2 16v42l-4 25-4 18-6 21-11 28-12 23v7l7 7 12 9 16 11 23 15 13 8 16 9 7 3h7l33-10 20-7 20-8 38-19 27-18 16-12 7-5 1 2-20 15-13 9-17 11-20 11-21 10-26 10-24 8-17 5-11 1-16-8-17-10-17-11-11-7-17-12-12-9-5-4-3-4v-6l12-23 6-13 8-21 7-25 4-22 2-20v-33z" fill="#518D43"/>
<path transform="translate(279,848)" d="m0 0 2 4 7 20 10 18 11 18 14 18 12 17 9 13 12 20 10 23 8 25 4 16v6l-1-4h-2l-6-21-4-10-4-13-3-5-3-7-8-16-6-10-5-9-15-22-8-10-20-30-10-20-5-17z" fill="#75A541"/>
<path transform="translate(425,418)" d="m0 0m-1 1m-2 1h2l-1 3-11 7-3 1-2 4-1 5 3 19 2 7 2 16v38l-3 22-3 18-4 11-1 3-1 8-2 7h-2l-1 10-5 12-2 1-4 10-3 1 2-6 8-20 5-16 5-18 4-21 1-9h2l1-22v-17l-2-23-3-22-1-4v-12l7-6z" fill="#3DA0B9"/>
<path transform="translate(590,354)" d="m0 0h6v2l-35 8-26 8-21 7-19 8-21 10-30 15-14 8-12 8-8 6-2 4 1 11v10h-1l-3-20 2-5 5-5 11-7 4-5 21-12 6-1 12-6 23-11 11-5 24-9 24-8 17-5 22-5z" fill="#4BB2CA"/>
<path transform="translate(306,769)" d="m0 0 2 3-4 15-2 11-2 33h2l5 22 9 17 4 8 8 12v4l4 2 11 15v3h2l-1 3-14-18-12-18-11-21-8-24-2-15v-16l3-20 4-15z" fill="#479D93"/>
<path transform="translate(512,617)" d="m0 0h46l16 5 5 3v2l-10-3-22-4h-19l-18 2-21 6-17 8-12 8-10 9-2 5v6l-2-1 1-9 4-6 15-12h3v-2l15-8 14-5 10-1v-2z" fill="#459786"/>
<path transform="translate(520,642)" d="m0 0h29l21 4h6l5-3-1 4-7 3-13-2v-2h-32l-12 2-12 3-15 5-17 9-2-1 9-7 10-6 21-7z" fill="#49B0C8"/>
<path transform="translate(345,917)" d="m0 0h3l5 7v3l3 1 8 13 10 17 10 19 6 16 7 21 2 9 3 9 1 5v15h-1l-6-29-7-24-9-22-11-21-13-22-8-11-3-4z" fill="#479F99"/>
<path transform="translate(519,684)" d="m0 0h22l12 2 6 2v2l7 1 1 4-9-3-10-3-7-1h-20l-16 4-14 7-11 8-7 8-1-3 12-13 6-5 11-5 13-4z" fill="#4A9C88"/>
<path transform="translate(712,1153)" d="m0 0 4 1-12 8-13 10-15 13-18 18-8 7-15 14-2-1 7-7 6-8h2l2-4 8-7 7-7h2v-2l11-9 10-9 11-8 10-7z" fill="#459785"/>
<path transform="translate(560,359)" d="m0 0m-4 1h4v2l-30 10-25 9-16 7-17 8-20 10-2-1 5-4 16-8 13-6 15-7 29-11 25-8z" fill="#3DA0B9"/>
<path transform="translate(289,739)" d="m0 0h2l-3 10-7 22-4 17-1 15v22l1 13 2 10h-2l-3-10-2-17v-14l2-21 6-24 6-16z" fill="#75A541"/>
<path transform="translate(406,961)" d="m0 0 2 1-8 9-2 7v5l6 8 8 6 14 7 15 5 12 2 21 1 18-2h6v1l-16 3h-25l-17-3-16-5-13-6-10-7-4-6-1-3v-10l4-7z" fill="#A5CD46"/>
<path transform="translate(279,848)" d="m0 0 2 4 7 20 10 18 11 18 14 18 3 4-1 2-5-4-9-12-18-27-10-20-5-17z" fill="#6DA042"/>
<path transform="translate(789,402)" d="m0 0v3l-8 9-7 8-12 14-9 10-7 9-1-2 4-7 3-4 4-7 14-15 6-5 7-8z" fill="#45ABC3"/>
<path transform="translate(381,544)" d="m0 0h2l-1 9-6 24-9 25-11 22-1-4 7-15 4-9 4-11 4-13 3-13 1-2 2-12z" fill="#77A641"/>
<path transform="translate(801,355)" d="m0 0 5 1 5 3-1 7-7 14-9 13-2 6-5 6-8 7-7 8-2-1 3-4h2l2-4 14-18 7-11 9-17v-5l-6-3z" fill="#4BB2CA"/>
<path transform="translate(508,619)" d="m0 0h9v2l-15 3-15 5-16 8-11 7-10 9-2 5v6l-2-1 1-9 4-6 15-12h3v-2l15-8 14-5z" fill="#469F9A"/>
<path transform="translate(369,458)" d="m0 0h2v2l-11 9-10 9-8 7-22 22-7 8-9 10-11 14-5 6v-3l12-16 14-15 7-8 29-29 8-7z" fill="#518D43"/>
<path transform="translate(769,1134)" d="m0 0m-19 1h19l29 3 4 2-12-1-14-1h-11l-14 2-11 3-13 5-4 1 1-3 7-3h4v-2h2v-2z" fill="#459784"/>
<path transform="translate(695,561)" d="m0 0 1 4-3 23-1 15v16l2 21 2 16-3-4-1-2-2-17v-40l2-25z" fill="#42A1AB"/>
<path transform="translate(403,558)" d="m0 0h1v10l-2 6-1 8-2 7h-2l-1 10-5 12-2 1-4 10-3 1 2-6 8-20 5-16 5-18z" fill="#469E98"/>
<path transform="translate(450,404)" d="m0 0m-2 1h2l-2 5-17 9-10 7-5 4-5 3-3 5 1 11v10h-1l-3-20 2-5 5-5 11-7 4-5 14-8z" fill="#40A4BD"/>
<path transform="translate(379,451)" d="m0 0 4 1 1 2 3 31 1 19-2 24-2 16h-1v-10l2-19v-25l-2-13-2-22-2-1-6 4-2-1z" fill="#518D43"/>
<path transform="translate(809,415)" d="m0 0v3l-3 5h-2l-2 5-6 7-4 4-3 4h-2l-2 5-5 5-8 10-10 11-5 7-2-1 9-12 11-13 10-11 9-11 8-9z" fill="#6A9E42"/>
<path transform="translate(640,1072)" d="m0 0 15 8 12 4 13 2h38l-3 2-5 1h-31l-18-4-12-5-9-6z" fill="#479D92"/>
<path transform="translate(648,937)" d="m0 0h9l31 3h12l18-2 13-1h11v1l-34 4-15 1-38-4-7-1z" fill="#469F9B"/>
<path transform="translate(411,511)" d="m0 0h1v19l-5 30-2 7h-1v-15l3-19h2l1-21z" fill="#41A5BD"/>
<path transform="translate(519,684)" d="m0 0h22l12 2 6 2v2l7 1 1 4-9-3-10-3-7-1v-2l-21 1-9 1v-2z" fill="#44A5B7"/>
<path transform="translate(520,642)" d="m0 0h29l21 4h6l5-3-1 4-7 3-13-2v-2l-17-1v-2l-22 1-11 1 4-2z" fill="#499678"/>
<path transform="translate(1019,855)" d="m0 0 10 1 23 5 12 3 10 2 11 3v2l-9-1-27-7-26-6z" fill="#79A841"/>
<path transform="translate(350,678)" d="m0 0h1l-1 8-6 9h-2l-1 4-9 16h-3l2-5 10-18 7-11z" fill="#479F98"/>
<path transform="translate(306,769)" d="m0 0 2 3-4 15-2 11-1 15h-1l-1-7 1-21 4-15z" fill="#44A9C1"/>
<path transform="translate(1112,903)" d="m0 0 9 1 32 7 7 1v2l2 1-10-1-23-5-17-4z" fill="#469783"/>
<path transform="translate(323,724)" d="m0 0 2 1-1 5-7 13-2 8h-2l-2 11h-2l-2 5-2 2 1-6 9-22z" fill="#469C92"/>
<path transform="translate(712,508)" d="m0 0 1 2-8 21-7 24-1 5h-1l1-13 5-17 4-11 2-3 1-5h2z" fill="#48A099"/>
<path transform="translate(743,456)" d="m0 0v3l-10 14-10 17-2 2v-6l3-1v-5l4-2 2-7 6-9z" fill="#479E97"/>
<path transform="translate(299,790)" d="m0 0h1v16l1 10-1 15h2v4h-2v-3h-2l-1-11v-16z" fill="#479884"/>
<path transform="translate(807,373)" d="m0 0 1 2-4 9-11 16-3 2 2-6 2-4 9-14z" fill="#459889"/>
<path transform="translate(521,643)" d="m0 0h22v1l-27 2-20 6-4-1 2-2 12-4z" fill="#3DA0B9"/>
<path transform="translate(567,695)" d="m0 0h6l11 9 11 14 2 3-1 3-8-11-11-11-10-6z" fill="#479E95"/>
<path transform="translate(279,848)" d="m0 0 2 4 7 20 7 13-1 2-4-7v-2l-3-1-4-8-5-17z" fill="#75A541"/>
<path transform="translate(1e3 877)" d="m0 0 9 1 42 10v1h-10l-41-11z" fill="#489C8D"/>
<path transform="translate(499,692)" d="m0 0 3 1-16 9-11 10-3 3 1-4 11-12 7-4z" fill="#499A83"/>
<path transform="translate(410,482)" d="m0 0h3v38h-1l-2-26z" fill="#43A8C1"/>
<path transform="translate(395,1017)" d="m0 0h2l3 7 3 13v15h-1l-6-29z" fill="#459F9C"/>
<path transform="translate(848,970)" d="m0 0 1 3 1 12 4 7 9 6 6 3-3 1-11-6-5-5-3-5-1-11z" fill="#A5CD46"/>
<path transform="translate(429,418)" d="m0 0 2 1-10 7-5 4-5 3-3 5 1 11v10h-1l-3-20 2-5 5-5z" fill="#4BB2CA"/>
<path transform="translate(791,394)" d="m0 0 2 4-6 7-8 7-7 8-2-1 3-4h2l2-4 11-14z" fill="#46ACC4"/>
<path transform="translate(1063,891)" d="m0 0 9 1 27 7v1l-13-1-18-4v-2l-5-1z" fill="#479985"/>
<path transform="translate(345,917)" d="m0 0h3l5 7v3l3 1 8 13-2 1-3-3-10-15-4-5z" fill="#469D94"/>
<path transform="translate(371,642)" d="m0 0 2 1-1 5-3 3-3 8-5 5-3 2 2-5z" fill="#479B8E"/>
<path transform="translate(695,561)" d="m0 0 1 4-3 23-1 15h-1v-23l1-12z" fill="#479985"/>
<path transform="translate(765,430)" d="m0 0v3l-12 13-7 9-1-2 4-7 10-11z" fill="#489576"/>
<path transform="translate(387,987)" d="m0 0 2 3 8 24v3h-2l-3-9-5-14z" fill="#46A1A1"/>
<path transform="translate(425,418)" d="m0 0m-1 1m-2 1h2l-1 3-11 7-3 1-2 4-2 5h-1v-7l7-6z" fill="#3DA0B9"/>
<path transform="translate(403,1041)" d="m0 0h1l3 17 1 22-2-3-2-16-1-1z" fill="#42A3B2"/>
<path transform="translate(466,636)" d="m0 0h3v2l-13 9-7 8-1 9-2-1 1-9 4-6z" fill="#45A1A5"/>
<path transform="translate(381,623)" d="m0 0 2 1-1 6-3 1-1 7-2 3-4 1 2-5z" fill="#479E94"/>
<path transform="translate(741,713)" d="m0 0 3 1 11 18 7 9-1 2-12-16-8-13z" fill="#7EAB41"/>
<path transform="translate(553,620)" d="m0 0h15l10 4 1 3-10-3-16-3z" fill="#479D93"/>
<path transform="translate(299,832)" d="m0 0 1 3h2l3 9 2 9 1 7-2-3-7-21z" fill="#469B8E"/>
<path transform="translate(381,544)" d="m0 0h2l-1 9-3 12-2-2 3-18z" fill="#75A541"/>
<path transform="translate(774,458)" d="m0 0v3l-12 13-5 7-2-1 9-12 6-7z" fill="#76A641"/>
<path transform="translate(306,769)" d="m0 0 2 3-5 13-2 5h-1l1-10 3-10z" fill="#479B8B"/>
<path transform="translate(489,651)" d="m0 0 3 1-6 4-3 3-11 6-2-1 9-7z" fill="#479C8E"/>
<path transform="translate(750,1138)" d="m0 0h5l-4 2-11 3-13 5-4 1 1-3 7-3 10-3z" fill="#4D9057"/>
<path transform="translate(311,915)" d="m0 0 5 2 10 13-1 2-5-4-9-12z" fill="#72A341"/>
<path transform="translate(323,724)" d="m0 0 2 1-1 5-8 16-3 1 2-6z" fill="#469887"/>
<path transform="translate(391,600)" d="m0 0h1v8l-1 3-2 1-4 10-3 1 2-6z" fill="#469989"/>
<path transform="translate(1060,865)" d="m0 0h11l14 4v2l-9-1-16-4z" fill="#72A341"/>
<path transform="translate(289,739)" d="m0 0h2l-3 10-3 9h-2l-2 4 2-9z" fill="#78A741"/>
<path transform="translate(731,472)" d="m0 0 2 1-10 17-2 2v-6l3-1v-5l4-2 2-5z" fill="#459B92"/>
<path transform="translate(288,878)" d="m0 0h2l4 8 5 5 2 8-4-4-6-9z" fill="#7DAB41"/>
<path transform="translate(702,535)" d="m0 0 1 2-6 23h-1l1-13 3-11z" fill="#479C90"/>
<path transform="translate(823,395)" d="m0 0 1 4-10 14-4 2 7-11z" fill="#73A441"/>
<path transform="translate(779,414)" d="m0 0v3l-12 13-2-3 8-8z" fill="#489575"/>
<path transform="translate(548,688)" d="m0 0h11v2l7 1 1 4-9-3-10-3z" fill="#479984"/>
<path transform="translate(308,856)" d="m0 0 2 2 7 15-3 1-6-12z" fill="#45A1A4"/>
<path transform="translate(350,678)" d="m0 0h1l-1 8-6 9-1-3 2-6z" fill="#46A19F"/>
<path transform="translate(508,619)" d="m0 0h9v2l-15 3-7 1 4-4z" fill="#48967C"/>
<path transform="translate(408,543)" d="m0 0h1l-1 10-3 14h-1v-10l2-9z" fill="#44A9C1"/>
<path transform="translate(809,415)" d="m0 0v3l-3 5h-2l-2 5-6 7-1-3 11-13z" fill="#6FA141"/>
<path transform="translate(692,632)" d="m0 0h1l3 24-3-4-1-2z" fill="#489C8B"/>
<path transform="translate(371,1025)" d="m0 0h2l2 8v4h2l1 9-1-4h-2l-4-13z" fill="#7BAA41"/>
<path transform="translate(361,941)" d="m0 0 5 3 5 10-2 2-8-13z" fill="#479C90"/>
<path transform="translate(834,374)" d="m0 0 1 3-6 14-4 4v-3z" fill="#639942"/>
<path transform="translate(409,460)" d="m0 0h1l2 13v9h-2l-1-9z" fill="#45ABC3"/>
<path transform="translate(335,901)" d="m0 0 4 4 4 6v3h2l-1 3-9-12z" fill="#469D95"/>
<path transform="translate(275,825)" d="m0 0h1l1 13 2 10h-2l-3-10z" fill="#689D42"/>
<path transform="translate(580,643)" d="m0 0 1 3-4 3-6 1-3-1v-2l-3-1h11z" fill="#479A88"/>
<path transform="translate(1146,911)" d="m0 0 14 1v2l2 1-10-1-6-1z" fill="#439A93"/>
<path transform="translate(506,645)" d="m0 0 4 1-8 2v2l-9 2-1-2z" fill="#489575"/>
<path transform="translate(396,592)" d="m0 0 1 3-4 11h-1v-9l1-3z" fill="#46A4AC"/>
<path transform="translate(285,867)" d="m0 0 2 2 8 16-1 2-4-7v-2l-3-1-2-5z" fill="#5E9642"/>
<path transform="translate(403,558)" d="m0 0h1v10l-2 6-2 4-1-3z" fill="#489473"/>
<path transform="translate(450,404)" d="m0 0m-2 1h2l-2 5-6 3-2-1 4-5z" fill="#42A7C0"/>
<path transform="translate(712,1153)" d="m0 0 4 1-12 8h-3l5-5z" fill="#46967F"/>
<path transform="translate(450,666)" d="m0 0 5 3h7l4-1v2l-4 2-9-1-3-2z" fill="#489F97"/>
<path transform="translate(407,533)" d="m0 0h1l1 10-3 10-2 4 1-10z" fill="#4C915F"/>
<path transform="translate(789,402)" d="m0 0v3l-8 9-2-3z" fill="#479578"/>
<path transform="translate(905,822)" d="m0 0 4 2 1 3-6 1-3-1v-2z" fill="#8BB847"/>
<path transform="translate(361,608)" d="m0 0 1 4-6 12-1-4z" fill="#7DAB41"/>
<path transform="translate(356,930)" d="m0 0 4 4 4 8-4-1-4-7z" fill="#45A2A7"/>
<path transform="translate(452,647)" d="m0 0 3 1-6 7-1 9-2-1 1-9 4-6z" fill="#489F97"/>
<path transform="translate(841,363)" d="m0 0m-2 1h2l-1 5-4 8h-1l1-7z" fill="#79A841"/>
<path transform="translate(400,1037)" d="m0 0h3v15h-1l-2-11z" fill="#489984"/>
<path transform="translate(550,617)" d="m0 0h8l7 2v1h-12v-2z" fill="#46ABC3"/>
<path transform="translate(588,710)" d="m0 0 5 5 4 6-1 3-8-11z" fill="#46A09F"/>
<path transform="translate(320,680)" d="m0 0h2l-2 5-4 7-1-4z" fill="#71A341"/>
<path transform="translate(479,704)" d="m0 0 4 1-8 7-3 3 1-4z" fill="#479E94"/>
<path transform="translate(337,652)" d="m0 0h2l-2 5-5 8-1-3z" fill="#75A541"/>
<path transform="translate(512,617)" d="m0 0h11v1l-7 2h-6l-2-2z" fill="#45AAC2"/>
</svg>
