<svg width="49" height="45" viewBox="0 0 49 45" fill="none" xmlns="http://www.w3.org/2000/svg">
<path d="M35.9844 21.0938H13.0156V36.5625H35.9844V21.0938Z" fill="#994635"/>
<path d="M10.7188 42.8906C12.4101 42.8906 13.7812 41.6314 13.7812 40.0781C13.7812 38.5248 12.4101 37.2656 10.7188 37.2656C9.02738 37.2656 7.65625 38.5248 7.65625 40.0781C7.65625 41.6314 9.02738 42.8906 10.7188 42.8906Z" fill="#994635"/>
<path d="M38.2812 42.8906C39.9726 42.8906 41.3438 41.6314 41.3438 40.0781C41.3438 38.5248 39.9726 37.2656 38.2812 37.2656C36.5899 37.2656 35.2188 38.5248 35.2188 40.0781C35.2188 41.6314 36.5899 42.8906 38.2812 42.8906Z" fill="#994635"/>
<path d="M13.0156 36.5625H9.95312L9.76172 35.8594C9.00026 35.8594 8.26998 35.5816 7.73155 35.0871C7.19311 34.5926 6.89062 33.922 6.89062 33.2227V21.0938H13.0156V36.5625ZM39.2383 35.8594L39.0469 36.5625H35.9844V21.0938H42.1094V33.2227C42.1094 33.922 41.8069 34.5926 41.2685 35.0871C40.73 35.5816 39.9997 35.8594 39.2383 35.8594Z" fill="#FAC850"/>
<path d="M14.9297 25.3125H22.5859C23.0936 25.3125 23.5804 25.4977 23.9394 25.8274C24.2983 26.157 24.5 26.6041 24.5 27.0703V28.8281H13.0156V27.0703C13.0156 26.6041 13.2173 26.157 13.5762 25.8274C13.9352 25.4977 14.422 25.3125 14.9297 25.3125ZM14.9297 32.3438H22.5859C23.0936 32.3438 23.5804 32.5289 23.9394 32.8586C24.2983 33.1883 24.5 33.6354 24.5 34.1016V35.8594H13.0156V34.1016C13.0156 33.6354 13.2173 33.1883 13.5762 32.8586C13.9352 32.5289 14.422 32.3438 14.9297 32.3438ZM26.4141 25.3125H34.0703C34.578 25.3125 35.0648 25.4977 35.4238 25.8274C35.7827 26.157 35.9844 26.6041 35.9844 27.0703V28.8281H24.5V27.0703C24.5 26.6041 24.7017 26.157 25.0606 25.8274C25.4196 25.4977 25.9064 25.3125 26.4141 25.3125ZM26.4141 32.3438H34.0703C34.578 32.3438 35.0648 32.5289 35.4238 32.8586C35.7827 33.1883 35.9844 33.6354 35.9844 34.1016V35.8594H24.5V34.1016C24.5 33.6354 24.7017 33.1883 25.0606 32.8586C25.4196 32.5289 25.9064 32.3438 26.4141 32.3438Z" fill="#FFF9F8"/>
<path d="M27.5625 3.51562H24.5V8.4375H27.5625V3.51562Z" fill="#FA5D3F"/>
<path d="M29.8594 18.9844L29.0938 19.6875H22.9688L22.2031 18.9844V8.61328C22.2031 8.38018 22.304 8.15663 22.4834 7.9918C22.6629 7.82697 22.9063 7.73438 23.1602 7.73438H28.9023C29.1562 7.73438 29.3996 7.82697 29.5791 7.9918C29.7585 8.15663 29.8594 8.38018 29.8594 8.61328V18.9844Z" fill="#79D8EB"/>
<path d="M29.8594 11.25H22.2031V15.4688H29.8594V11.25Z" fill="#FAC850"/>
<path d="M40.5781 5.625L36.75 4.83398V8.78906H40.5781V5.625Z" fill="#FA5D3F"/>
<path d="M36.75 8.4375L33.6875 15.4688V18.9844L34.4531 19.6875H42.1094L42.875 18.9844V15.4688L40.5781 8.4375H36.75Z" fill="#79D8EB"/>
<path d="M34.6445 2.8125H32.1562V4.21875H34.6445V2.8125Z" fill="#79D8EB"/>
<path d="M34.7378 4.49705L33.0151 7.39746L34.3594 8.07084L36.0821 5.17042L34.7378 4.49705Z" fill="#FA5D3F"/>
<path d="M34.4531 4.92188V2.10938H39.0469L40.5781 5.625H36.75L34.4531 4.92188Z" fill="#FAC850"/>
<path d="M40.5781 14.7656H35.9844V16.1719H40.5781V14.7656Z" fill="#E4F7FB"/>
<path d="M11.4844 11.25H6.125V19.6875H11.4844V11.25Z" fill="#E4F7FB"/>
<path d="M18.375 19.6875H10.7188V11.9531L18.375 11.5137V19.6875Z" fill="#79D8EB"/>
<path d="M14.5469 13.3594C16.6611 13.3594 18.375 12.5724 18.375 11.6016C18.375 10.6307 16.6611 9.84375 14.5469 9.84375C12.4327 9.84375 10.7188 10.6307 10.7188 11.6016C10.7188 12.5724 12.4327 13.3594 14.5469 13.3594Z" fill="#E4F7FB"/>
<path d="M9.95312 25.3125H6.89062V28.8281H9.95312V25.3125Z" fill="#FA5D3F"/>
<path d="M25.2656 35.8594V21.7969H44.2148C44.4687 21.7969 44.7121 21.7043 44.8916 21.5394C45.071 21.3746 45.1719 21.1511 45.1719 20.918V18.9844H3.82812V20.918C3.82812 21.1511 3.92895 21.3746 4.10843 21.5394C4.28791 21.7043 4.53134 21.7969 4.78516 21.7969H23.7344V35.8594H2.29688V36.9141C2.29688 37.3803 2.49853 37.8274 2.85749 38.157C3.21645 38.4867 3.7033 38.6719 4.21094 38.6719H44.7891C45.2967 38.6719 45.7836 38.4867 46.1425 38.157C46.5015 37.8274 46.7031 37.3803 46.7031 36.9141V35.8594H25.2656Z" fill="#FA5D3F"/>
</svg>
