<svg width="49" height="45" viewBox="0 0 49 45" fill="none" xmlns="http://www.w3.org/2000/svg">
<path d="M42.5994 18.8648V38.1164C42.5984 38.6363 42.4859 39.1508 42.2683 39.6308C42.0508 40.1107 41.7324 40.5466 41.3315 40.9135C40.9305 41.2804 40.4548 41.5712 39.9314 41.7693C39.408 41.9674 38.8473 42.0689 38.2813 42.068H10.7188C10.1527 42.0689 9.59199 41.9674 9.06863 41.7693C8.54528 41.5712 8.06953 41.2804 7.66855 40.9135C7.26758 40.5466 6.94923 40.1107 6.73168 39.6308C6.51413 39.1508 6.40164 38.6363 6.40063 38.1164V18.8648L12.7324 14.7234C13.1637 14.8525 13.5658 15.0527 13.9191 15.3141C14.5429 15.7489 15.0249 16.3326 15.3125 17.0016C15.4167 16.3097 15.7267 15.6577 16.2083 15.1172C16.6825 14.583 17.3037 14.1751 18.0075 13.9359C17.2877 13.8425 16.6069 13.5784 16.0322 13.1695C15.8876 13.0721 15.7542 12.9614 15.6341 12.8391L24.5 7.03125L42.5994 18.8648Z" fill="#DAECF7"/>
<path d="M47.2467 19.6453C46.9363 20.0405 46.4687 20.3072 45.9455 20.3875C45.4222 20.4678 44.8856 20.3553 44.4522 20.0742L42.5993 18.8649L24.5 7.03127L15.5958 12.8391C15.1603 12.4423 14.8257 11.9621 14.6158 11.4328C14.4223 12.0815 14.0862 12.687 13.6281 13.2117C13.1602 13.7447 12.5794 14.1848 11.9208 14.5055C12.1986 14.5384 12.4711 14.6022 12.7323 14.6953L6.40059 18.8649L4.54778 20.0742C4.20348 20.2851 3.79782 20.3954 3.38403 20.3906C2.96553 20.3873 2.55884 20.2628 2.22175 20.0351C1.88465 19.8073 1.63431 19.4877 1.5063 19.1218C1.37828 18.7558 1.37911 18.3622 1.50866 17.9967C1.63821 17.6312 1.88989 17.3125 2.22794 17.086L6.40059 14.3508L10.9254 11.3977L14.945 8.76096L21.07 4.76018L23.3668 3.26955C23.4517 3.20267 23.5473 3.14814 23.6501 3.10783C23.7414 3.06777 23.8361 3.03484 23.9334 3.0094C24.0043 2.98289 24.0792 2.96629 24.1554 2.96018C24.3633 2.92831 24.5754 2.92831 24.7833 2.96018H24.8981L25.0972 3.00236C25.1687 3.0187 25.238 3.04228 25.3039 3.07268C25.4266 3.12021 25.5423 3.18162 25.6484 3.25549L27.9453 4.74611L34.5067 9.04924C34.1603 9.32025 33.7829 9.556 33.3812 9.75236C34.3138 9.87425 35.1934 10.2246 35.9276 10.7665C36.6619 11.3084 37.2236 12.0219 37.5539 12.8321C37.6356 12.3259 37.8036 11.8348 38.0515 11.3766L42.5993 14.3508L46.772 17.086C47.2013 17.3698 47.4918 17.7974 47.5806 18.2763C47.6695 18.7552 47.5495 19.247 47.2467 19.6453Z" fill="#A0A0A0"/>
<path d="M30.0585 42.0751H18.9417V33.5462C18.9417 33.1005 19.1344 32.6731 19.4776 32.3579C19.8208 32.0428 20.2862 31.8657 20.7715 31.8657H28.2287C28.714 31.8657 29.1794 32.0428 29.5226 32.3579C29.8657 32.6731 30.0585 33.1005 30.0585 33.5462V42.0751Z" fill="#DD692F"/>
<path d="M35.9155 18.2742H30.135C29.4542 18.2742 28.9023 18.781 28.9023 19.4062V24.1312C28.9023 24.7564 29.4542 25.2632 30.135 25.2632H35.9155C36.5962 25.2632 37.1481 24.7564 37.1481 24.1312V19.4062C37.1481 18.781 36.5962 18.2742 35.9155 18.2742Z" fill="#84C6F7"/>
<path d="M18.8649 18.2742H13.0845C12.4037 18.2742 11.8518 18.781 11.8518 19.4062V24.1312C11.8518 24.7564 12.4037 25.2632 13.0845 25.2632H18.8649C19.5457 25.2632 20.0976 24.7564 20.0976 24.1312V19.4062C20.0976 18.781 19.5457 18.2742 18.8649 18.2742Z" fill="#84C6F7"/>
<path d="M14.9451 5.55469V8.76094L10.9255 11.3977V5.55469C10.9255 5.28551 11.0414 5.02724 11.248 4.83624C11.4545 4.64525 11.7349 4.53701 12.028 4.53516H13.8426C14.1357 4.53701 14.4161 4.64525 14.6226 4.83624C14.8292 5.02724 14.9451 5.28551 14.9451 5.55469Z" fill="#A0A0A0"/>
<path d="M17.9691 13.936C17.2653 14.1752 16.6441 14.5831 16.1699 15.1173C15.7021 15.6617 15.4055 16.3134 15.3124 17.0017C15.0354 16.3368 14.567 15.7536 13.9573 15.3142C13.604 15.0528 13.2019 14.8526 12.7705 14.7235C12.5094 14.6304 12.2369 14.5666 11.959 14.5337C12.6176 14.2131 13.1985 13.7729 13.6663 13.2399C14.1244 12.7152 14.4606 12.1097 14.654 11.461C14.8639 11.9903 15.1985 12.4705 15.634 12.8673C15.7541 12.9896 15.8875 13.1003 16.0321 13.1978C16.599 13.591 17.2656 13.8451 17.9691 13.936ZM36.3748 36.3517C36.1044 35.6854 35.6379 35.1012 35.0273 34.6642C34.4464 34.2489 33.7576 33.9799 33.029 33.8837C33.684 33.5581 34.2619 33.1159 34.7287 32.5829C35.1842 32.0593 35.5202 31.4566 35.7163 30.811C35.9985 31.4848 36.4748 32.0754 37.0945 32.5196C37.6646 32.9207 38.3364 33.182 39.0468 33.279C38.3522 33.5195 37.7393 33.9246 37.2705 34.4532C36.7914 35.0005 36.4819 35.6564 36.3748 36.3517ZM40.9226 9.0001C40.041 9.29688 39.2632 9.80707 38.6716 10.4767C38.428 10.7538 38.2199 11.0558 38.0515 11.3767C37.8035 11.8349 37.6356 12.326 37.5538 12.8321C37.2236 12.022 36.6618 11.3085 35.9276 10.7665C35.1933 10.2246 34.3137 9.87433 33.3812 9.75244C33.7829 9.55608 34.1602 9.32033 34.5066 9.04932C34.8728 8.77038 35.2087 8.45956 35.5096 8.12119C36.078 7.47045 36.4996 6.72232 36.7499 5.92041C37.0997 6.7549 37.6931 7.48474 38.4649 8.02979C39.1823 8.53981 40.032 8.86938 40.9302 8.98604" fill="#FED402"/>
<path d="M6.40061 18.8647L6.33936 18.8999C6.33936 19.0054 6.37764 19.1179 6.40061 19.2233V18.8647Z" fill="#BFBFBF"/>
<path d="M9.2411 17.0015L6.40063 18.8647V19.2233C6.51548 19.7999 6.67626 20.4116 6.44657 20.4116H6.40063V38.1163C6.40164 38.6362 6.51413 39.1507 6.73168 39.6307C6.94923 40.1106 7.26758 40.5465 7.66855 40.9134C8.06953 41.2803 8.54528 41.5711 9.06863 41.7692C9.59199 41.9673 10.1527 42.0688 10.7188 42.0679H13.7813C13.2152 42.0688 12.6545 41.9673 12.1311 41.7692C11.6078 41.5711 11.132 41.2803 10.7311 40.9134C10.3301 40.5465 10.0117 40.1106 9.79418 39.6307C9.57663 39.1507 9.46414 38.6362 9.46313 38.1163L9.2411 17.0226" fill="#A3B1B9"/>
<path d="M9.24098 17.0015L6.40051 18.2812C6.28566 18.3585 6.29332 18.6046 6.33926 18.9069L6.40051 18.8718L9.24098 17.0085" fill="#787878"/>
<path d="M13.988 9.38672L10.9255 11.3977L6.40062 14.3508L2.22796 17.0859C1.9689 17.2564 1.75799 17.4812 1.61281 17.7418C1.46764 18.0023 1.39242 18.2909 1.39343 18.5836C1.38888 18.9634 1.51479 19.3349 1.75327 19.6453V19.6875C1.94498 19.9079 2.1885 20.0857 2.46561 20.2075C2.74272 20.3292 3.04624 20.3918 3.35343 20.3906C3.76197 20.3928 4.16097 20.2772 4.49421 20.0602L4.9153 19.7859L4.76218 19.6313C4.45936 19.2329 4.3394 18.7411 4.42823 18.2622C4.51705 17.7833 4.80753 17.3557 5.23687 17.0719L9.40952 14.3367L13.9344 11.3836V9.38672" fill="#787878"/>
<path d="M13.8426 4.53516H12.028C11.7349 4.53701 11.4545 4.64525 11.248 4.83624C11.0414 5.02724 10.9255 5.28551 10.9255 5.55469V11.3977L13.988 9.38672V8.62031C13.8207 8.36475 13.6895 8.09067 13.5976 7.80469C13.4543 7.26196 13.4488 6.69624 13.5815 6.15126C13.7143 5.60628 13.9817 5.09663 14.3632 4.66172C14.2116 4.58154 14.0404 4.538 13.8655 4.53516" fill="#787878"/>
<path d="M30.0583 42.0679H26.9958V42.0749H30.0583V42.0679Z" fill="#EE9E47"/>
<path d="M25.0742 3.00227C25.1457 3.0186 25.2151 3.04219 25.2809 3.07258C25.4036 3.12012 25.5194 3.18153 25.6255 3.25539L27.9223 4.74602L32.6386 7.83274L27.9453 4.76008L25.6484 3.26946C25.5423 3.19559 25.4266 3.13418 25.3039 3.08664C25.238 3.05625 25.1687 3.03267 25.0972 3.01633M24.1555 2.97414C24.0792 2.98026 24.0044 2.99685 23.9334 3.02336C23.8362 3.0488 23.7414 3.08173 23.6502 3.1218C23.5473 3.1621 23.4518 3.21664 23.3669 3.28352L22.9688 3.51555L23.3362 3.27649C23.4211 3.20961 23.5167 3.15507 23.6195 3.11477C23.7108 3.0747 23.8055 3.04177 23.9028 3.01633C23.9737 2.98982 24.0486 2.97323 24.1248 2.96711" fill="white"/>
<path d="M24.5 2.92512C24.3904 2.91819 24.2804 2.91819 24.1708 2.92512C24.0945 2.93124 24.0197 2.94783 23.9488 2.97434C23.8515 2.99978 23.7567 3.03271 23.6655 3.07278C23.5626 3.11308 23.4671 3.16762 23.3822 3.2345L22.9688 3.51575L24.8828 4.76028L31.4442 9.0634C31.8104 8.78447 32.1463 8.47364 32.4472 8.13528C32.5314 8.03684 32.5927 7.94543 32.6616 7.84699L27.9453 4.76028L25.6484 3.26965C25.5423 3.19579 25.4266 3.13437 25.3039 3.08684C25.238 3.05644 25.1687 3.03286 25.0972 3.01653L24.8981 2.97434H24.7833H24.523" fill="#D0D0D0"/>
<path d="M42.2395 18.6257L42.5993 18.8648V38.1093L43.1276 19.2093L42.5993 18.8648L42.2395 18.6257Z" fill="white"/>
<path d="M39.9503 17.1282L39.5369 18.8649V38.1165C39.5359 38.6363 39.4234 39.1509 39.2058 39.6308C38.9883 40.1107 38.6699 40.5466 38.269 40.9135C37.868 41.2805 37.3922 41.5713 36.8689 41.7694C36.3455 41.9675 35.7848 42.0689 35.2188 42.068H38.2812C38.8473 42.0689 39.408 41.9675 39.9314 41.7694C40.4547 41.5713 40.9305 41.2805 41.3315 40.9135C41.7324 40.5466 42.0508 40.1107 42.2683 39.6308C42.4859 39.1509 42.5984 38.6363 42.5994 38.1165V18.8649L42.2395 18.6258C42.2433 18.7394 42.2587 18.8524 42.2855 18.9633V19.0055C41.7682 18.623 41.2961 18.1917 40.8767 17.7188L39.9733 17.1282" fill="#EDF6FB"/>
<path d="M42.339 18.3797C42.2777 18.3797 42.2318 18.45 42.2395 18.6258L42.5993 18.8649L43.1276 19.2024C43.1276 19.2024 42.9821 18.9985 42.8137 18.7946C42.6452 18.5907 42.4538 18.3797 42.339 18.3797ZM40.0421 16.9172L39.9885 17.1282L40.892 17.7188C40.6255 17.437 40.3417 17.1694 40.0421 16.9172Z" fill="#D0D0D0"/>
<path d="M35.5709 10.5469C35.3407 10.8082 35.1454 11.0938 34.989 11.3977L39.5368 14.3719L43.7095 17.1071C44.1388 17.3909 44.4293 17.8185 44.5181 18.2974C44.6069 18.7763 44.487 19.2681 44.1842 19.6665L44.031 19.8211L44.4521 20.0954C44.7849 20.3133 45.1842 20.429 45.5929 20.4258C45.9004 20.4286 46.2045 20.3667 46.4818 20.2448C46.7592 20.1229 47.0025 19.9443 47.1931 19.7227C47.1909 19.7087 47.1909 19.6945 47.1931 19.6805C47.4316 19.3701 47.5575 18.9986 47.5529 18.6188C47.5539 18.3261 47.4787 18.0375 47.3335 17.777C47.1884 17.5164 46.9774 17.2916 46.7184 17.1211L42.5457 14.386L38.0515 11.3766C37.8036 11.8348 37.6356 12.326 37.5539 12.8321C37.2215 11.9984 36.6404 11.2675 35.8771 10.7227C35.7776 10.6454 35.6704 10.5821 35.5709 10.5188" fill="#D0D0D0"/>
<path d="M36.7499 5.92041C36.7499 5.9626 36.7499 6.01885 36.6963 6.06807C36.4477 6.81531 36.0505 7.51381 35.5249 8.12822C36.219 8.58625 37.0222 8.88519 37.8677 9.0001C36.9861 9.29688 36.2084 9.80707 35.6168 10.4767V10.5259C35.7163 10.5892 35.8235 10.6524 35.923 10.7298C36.6863 11.2745 37.2674 12.0055 37.5997 12.8392C37.6815 12.333 37.8495 11.8419 38.0974 11.3837C38.2658 11.0628 38.4739 10.7608 38.7176 10.4837C39.3092 9.8141 40.0869 9.30391 40.9685 9.00713C40.0702 8.89047 39.2205 8.5609 38.5032 8.05088C37.7313 7.50583 37.1379 6.77599 36.7882 5.9415" fill="#FFEA03"/>
<path d="M38.2813 42.7711H10.7188C9.3732 42.7711 8.08245 42.2812 7.1295 41.4086C6.17655 40.5361 5.63915 39.3522 5.6351 38.1164V18.8649C5.6332 18.7509 5.66148 18.6383 5.71749 18.5366C5.77351 18.435 5.85559 18.3473 5.95666 18.2813L12.2884 14.1399C12.3863 14.0768 12.4989 14.0357 12.6173 14.0198C12.7356 14.004 12.8563 14.0138 12.9698 14.0485C13.4866 14.2024 13.969 14.4406 14.3938 14.7516C14.6438 14.925 14.8723 15.123 15.0753 15.3422C15.2186 15.095 15.3851 14.8597 15.5729 14.6391C15.7518 14.4366 15.949 14.2485 16.1624 14.0766C15.9405 13.9649 15.7281 13.838 15.527 13.6969C15.352 13.5733 15.1881 13.4369 15.037 13.2891C14.9621 13.2159 14.9052 13.1288 14.87 13.0337C14.8349 12.9386 14.8223 12.8377 14.8332 12.7378C14.8441 12.6378 14.8782 12.5412 14.9331 12.4544C14.9881 12.3675 15.0626 12.2925 15.1518 12.2344L24.0637 6.44065C24.1934 6.35586 24.3486 6.3103 24.5078 6.3103C24.6669 6.3103 24.8221 6.35586 24.9518 6.44065L43.0435 18.2813C43.1435 18.3467 43.225 18.4332 43.2809 18.5335C43.3369 18.6339 43.3658 18.7451 43.3651 18.8578V38.1164C43.361 39.3522 42.8236 40.5361 41.8707 41.4086C40.9177 42.2812 39.627 42.7711 38.2813 42.7711ZM7.16635 19.2235V38.1164C7.16735 38.5439 7.26004 38.9671 7.43911 39.3617C7.61819 39.7563 7.88014 40.1147 8.21002 40.4163C8.5399 40.718 8.93125 40.957 9.36171 41.1198C9.79218 41.2825 10.2533 41.3658 10.7188 41.3649H38.2813C38.7469 41.3658 39.208 41.2825 39.6385 41.1198C40.0689 40.957 40.4603 40.718 40.7902 40.4163C41.1201 40.1147 41.382 39.7563 41.5611 39.3617C41.7402 38.9671 41.8328 38.5439 41.8338 38.1164V19.2235L24.5001 7.87503L16.8438 12.8672C17.2166 13.0574 17.6239 13.1836 18.0459 13.2399C18.2148 13.2626 18.3706 13.3365 18.4885 13.4499C18.6064 13.5633 18.6797 13.7096 18.6967 13.8656C18.7069 14.0164 18.6641 14.1662 18.5745 14.2928C18.4848 14.4194 18.3532 14.5162 18.199 14.5688C17.6245 14.7605 17.1186 15.0938 16.7367 15.5321C16.3355 15.9702 16.0709 16.4998 15.971 17.0649C15.9488 17.219 15.8716 17.3621 15.7515 17.4717C15.6313 17.5812 15.475 17.6511 15.307 17.6704C15.139 17.6897 14.9687 17.6573 14.8229 17.5783C14.677 17.4992 14.5639 17.378 14.501 17.2336C14.2822 16.6784 13.8974 16.191 13.3909 15.8274C13.1989 15.6896 12.9909 15.5717 12.7707 15.4758L7.16635 19.2235Z" fill="black"/>
<path d="M45.6159 21.0937C45.0432 21.0941 44.4843 20.932 44.0157 20.6296L24.4999 7.87493L16.0781 13.4156C15.9317 13.5113 15.7533 13.5568 15.5741 13.5439C15.395 13.5311 15.2264 13.4607 15.0981 13.3452C14.9779 13.2396 14.8654 13.1268 14.7612 13.0077C14.612 13.2405 14.4457 13.4637 14.2635 13.6757C14.0333 13.9492 13.7771 14.2033 13.4979 14.4351C13.5298 14.4972 13.5505 14.5637 13.5591 14.632C13.5767 14.7579 13.5567 14.8858 13.5015 15.0022C13.4462 15.1186 13.3577 15.219 13.2452 15.2929L4.9918 20.6437C4.69803 20.8561 4.36037 21.0116 3.99927 21.1007C3.63817 21.1898 3.26114 21.2107 2.89099 21.1621C2.52084 21.1136 2.16527 20.9965 1.8458 20.8181C1.52633 20.6397 1.2496 20.4036 1.03237 20.1241C0.815139 19.8446 0.661915 19.5275 0.581974 19.1921C0.502032 18.8566 0.497036 18.5098 0.567287 18.1725C0.637538 17.8352 0.781576 17.5145 0.990682 17.2299C1.19979 16.9452 1.46962 16.7025 1.78383 16.5163L22.8998 2.6929C23.023 2.60094 23.1596 2.52521 23.3056 2.4679C23.4164 2.41889 23.5317 2.37889 23.6501 2.34837C23.7785 2.30387 23.9121 2.2732 24.0482 2.25696C24.3017 2.21903 24.5603 2.21903 24.8138 2.25696H24.9899C25.1048 2.27226 25.2176 2.29817 25.3268 2.3343L25.5795 2.41868C25.7498 2.49106 25.9136 2.5757 26.0695 2.67181L34.9048 8.46556C35.0006 8.52814 35.0795 8.61018 35.1353 8.70529C35.1911 8.8004 35.2222 8.90603 35.2263 9.01399C35.235 9.17809 35.1808 9.33979 35.0732 9.47102C35.5136 9.65864 35.9275 9.89474 36.3059 10.1741C36.679 10.4407 37.0157 10.7476 37.3088 11.0882C37.3591 10.9973 37.4304 10.9174 37.5176 10.8543C37.6049 10.7912 37.7061 10.7462 37.8141 10.7226C37.9209 10.6977 38.0322 10.6942 38.1406 10.7124C38.2489 10.7306 38.3517 10.77 38.442 10.8281L47.1624 16.5374C47.7487 16.9295 48.1455 17.5161 48.2685 18.1725C48.3914 18.829 48.2308 19.5036 47.8209 20.0531C47.5674 20.3726 47.2359 20.6332 46.853 20.8139C46.47 20.9946 46.0464 21.0904 45.6159 21.0937ZM24.4999 6.32806C24.6595 6.329 24.8147 6.37571 24.944 6.46165L44.8962 19.4976C45.1646 19.6662 45.4934 19.7332 45.8143 19.6848C46.1352 19.6363 46.4233 19.4761 46.6188 19.2374C46.8074 18.9918 46.8826 18.6877 46.8281 18.3914C46.7736 18.0951 46.5938 17.8305 46.3279 17.6554L38.419 12.4734C38.3716 12.628 38.3358 12.7854 38.3118 12.9445C38.2855 13.0983 38.2043 13.2398 38.081 13.3467C37.9576 13.4536 37.7992 13.5198 37.6304 13.5351C37.4663 13.5445 37.3032 13.5052 37.1653 13.4229C37.0274 13.3406 36.922 13.2197 36.8648 13.0781C36.585 12.3868 36.1073 11.7776 35.4821 11.3148C34.8568 10.852 34.1072 10.5527 33.3123 10.4484C33.1525 10.4309 33.0028 10.3676 32.8844 10.2676C32.766 10.1675 32.6849 10.0357 32.6527 9.89092C32.6205 9.74614 32.6388 9.59571 32.7049 9.46101C32.7711 9.32631 32.8818 9.21419 33.0213 9.14056L33.1745 9.06321L25.2196 3.83899C25.1542 3.79635 25.085 3.75872 25.0129 3.72649H24.9057H24.8062H24.7296C24.5829 3.70133 24.4323 3.70133 24.2856 3.72649L24.0176 3.02337L24.186 3.72649C24.1556 3.73053 24.1246 3.73053 24.0941 3.72649L23.941 3.78274L23.8262 3.84602L2.67196 17.6554C2.40715 17.833 2.22847 18.0986 2.17411 18.3955C2.11974 18.6925 2.194 18.9971 2.38102 19.2445C2.58098 19.4777 2.86926 19.6333 3.18848 19.6802C3.5077 19.7271 3.83444 19.6619 4.10368 19.4976L11.2316 14.8359C11.2032 14.7774 11.1826 14.7161 11.1704 14.6531C11.142 14.5061 11.1653 14.3547 11.2369 14.2207C11.3085 14.0867 11.4246 13.9771 11.5685 13.9077C12.1293 13.6333 12.6221 13.255 13.0156 12.7968C13.4154 12.3405 13.7098 11.8142 13.8807 11.2499C13.9228 11.1058 14.0137 10.9777 14.1404 10.8841C14.267 10.7906 14.4227 10.7365 14.5851 10.7296C14.7514 10.732 14.9124 10.7841 15.0436 10.878C15.1748 10.9718 15.2692 11.1024 15.3124 11.2499C15.41 11.4984 15.5412 11.7346 15.7029 11.9531L24.0635 6.44056C24.1933 6.36346 24.3454 6.32424 24.4999 6.32806ZM30.0584 42.7781H18.9415C18.7384 42.7781 18.5437 42.704 18.4001 42.5721C18.2565 42.4403 18.1759 42.2614 18.1759 42.0749V33.546C18.1759 32.9139 18.4493 32.3076 18.9361 31.8606C19.4228 31.4136 20.083 31.1624 20.7713 31.1624H28.2285C28.9169 31.1624 29.5771 31.4136 30.0638 31.8606C30.5505 32.3076 30.824 32.9139 30.824 33.546V42.0749C30.824 42.2614 30.7433 42.4403 30.5997 42.5721C30.4562 42.704 30.2614 42.7781 30.0584 42.7781ZM19.7071 41.3718H29.2927V33.546C29.2927 33.2868 29.1806 33.0382 28.981 32.8549C28.7815 32.6717 28.5108 32.5687 28.2285 32.5687H20.7713C20.4891 32.5687 20.2184 32.6717 20.0188 32.8549C19.8192 33.0382 19.7071 33.2868 19.7071 33.546V41.3718Z" fill="black"/>
<path d="M35.9232 25.9664H30.1351C29.6064 25.9664 29.0993 25.774 28.7248 25.4314C28.3502 25.0888 28.1388 24.6238 28.1368 24.1383V19.4063C28.1388 18.9208 28.3502 18.4558 28.7248 18.1131C29.0993 17.7705 29.6064 17.5781 30.1351 17.5781H35.9232C36.4518 17.58 36.9582 17.7742 37.3312 18.1181C37.7043 18.4621 37.9138 18.9278 37.9138 19.4133V24.1453C37.9098 24.6284 37.6985 25.0905 37.3259 25.4314C36.9532 25.7723 36.4492 25.9646 35.9232 25.9664ZM30.1351 18.9844C30.0112 18.9844 29.8924 19.0296 29.8048 19.11C29.7172 19.1904 29.668 19.2995 29.668 19.4133V24.1453C29.668 24.2013 29.6802 24.2568 29.7037 24.3084C29.7273 24.36 29.7618 24.4069 29.8053 24.4461C29.8488 24.4854 29.9003 24.5163 29.9569 24.5371C30.0135 24.5579 30.0741 24.5681 30.1351 24.5672H35.9232C36.045 24.5672 36.1619 24.5227 36.248 24.4436C36.3342 24.3645 36.3826 24.2572 36.3826 24.1453V19.4063C36.3836 19.3503 36.3725 19.2946 36.3498 19.2426C36.3272 19.1906 36.2935 19.1433 36.2508 19.1034C36.208 19.0635 36.157 19.0318 36.1008 19.0101C36.0445 18.9885 35.9842 18.9773 35.9232 18.9773L30.1351 18.9844ZM18.8651 25.9664H13.0769C12.5496 25.9646 12.0445 25.7714 11.6716 25.4289C11.2987 25.0865 11.0883 24.6226 11.0863 24.1383V19.4063C11.0883 18.922 11.2987 18.4581 11.6716 18.1156C12.0445 17.7732 12.5496 17.58 13.0769 17.5781H18.8651C19.395 17.5781 19.9033 17.7715 20.2781 18.1156C20.6528 18.4598 20.8634 18.9266 20.8634 19.4133V24.1453C20.8593 24.6296 20.647 25.0928 20.2727 25.4339C19.8984 25.775 19.3924 25.9664 18.8651 25.9664ZM13.0769 18.9844C13.016 18.9844 12.9556 18.9955 12.8994 19.0171C12.8431 19.0388 12.7921 19.0705 12.7494 19.1104C12.7066 19.1503 12.6729 19.1977 12.6503 19.2497C12.6277 19.3017 12.6166 19.3573 12.6176 19.4133V24.1453C12.6176 24.2007 12.6295 24.2556 12.6525 24.3068C12.6756 24.3579 12.7095 24.4044 12.7521 24.4436C12.7948 24.4828 12.8454 24.5139 12.9011 24.5351C12.9569 24.5563 13.0166 24.5672 13.0769 24.5672H18.8651C18.926 24.5681 18.9866 24.5579 19.0432 24.5371C19.0998 24.5163 19.1514 24.4854 19.1949 24.4461C19.2383 24.4069 19.2729 24.36 19.2964 24.3084C19.32 24.2568 19.3321 24.2013 19.3321 24.1453V19.4063C19.3321 19.2925 19.2829 19.1834 19.1953 19.103C19.1077 19.0225 18.9889 18.9773 18.8651 18.9773L13.0769 18.9844ZM10.9255 12.1008C10.8033 12.0994 10.683 12.073 10.5734 12.0234C10.4485 11.964 10.3439 11.8742 10.271 11.7639C10.198 11.6535 10.1596 11.5268 10.1599 11.3977V5.55469C10.1599 5.09903 10.3565 4.66192 10.7066 4.33907C11.0567 4.01621 11.5319 3.83389 12.028 3.83203H13.8426C14.3387 3.83389 14.8139 4.01621 15.164 4.33907C15.5141 4.66192 15.7107 5.09903 15.7107 5.55469V8.76094C15.7101 8.87249 15.6807 8.98232 15.6248 9.08135C15.5689 9.18038 15.4881 9.26577 15.3891 9.33047L11.3696 11.9531C11.2422 12.0441 11.0868 12.0958 10.9255 12.1008ZM12.028 5.23828C11.938 5.24012 11.8523 5.27426 11.7894 5.3334C11.7264 5.39254 11.6911 5.47198 11.6912 5.55469V10.0266L14.1794 8.39531V5.58281C14.1795 5.5001 14.1442 5.42067 14.0813 5.36153C14.0183 5.30239 13.9326 5.26824 13.8426 5.26641L12.028 5.23828Z" fill="black"/>
<path d="M15.3126 17.7047C15.1592 17.7049 15.0094 17.6627 14.8824 17.5837C14.7555 17.5047 14.6573 17.3926 14.6005 17.2617C14.3817 16.7065 13.9969 16.2192 13.4904 15.8555C13.204 15.6424 12.8768 15.4803 12.5257 15.3774C12.3144 15.2984 12.0932 15.2441 11.8673 15.2157C11.705 15.1975 11.5533 15.1321 11.4344 15.029C11.3155 14.9259 11.2357 14.7906 11.2066 14.6428C11.1775 14.4951 11.2006 14.3427 11.2727 14.2079C11.3447 14.0731 11.4619 13.963 11.6069 13.8938C12.1525 13.6195 12.6318 13.2463 13.0157 12.7969C13.4155 12.3406 13.7099 11.8143 13.8809 11.25C13.9229 11.1059 14.0139 10.9778 14.1405 10.8842C14.2671 10.7907 14.4229 10.7366 14.5852 10.7297C14.7516 10.7321 14.9125 10.7842 15.0437 10.8781C15.175 10.9719 15.2693 11.1025 15.3126 11.25C15.4806 11.6695 15.7413 12.0525 16.0782 12.375C16.1811 12.4779 16.2938 12.572 16.4151 12.6563C16.8859 12.9833 17.4389 13.1961 18.0229 13.275C18.1918 13.2978 18.3476 13.3717 18.4655 13.4851C18.5834 13.5985 18.6567 13.7448 18.6737 13.9008C18.6839 14.0516 18.6411 14.2013 18.5515 14.328C18.4618 14.4546 18.3302 14.5514 18.176 14.6039C17.6015 14.7957 17.0956 15.129 16.7137 15.5672C16.3125 16.0053 16.0479 16.535 15.948 17.1C15.9271 17.2556 15.8502 17.4003 15.7296 17.5111C15.6089 17.6219 15.4513 17.6926 15.2819 17.7117L15.3126 17.7047ZM13.6359 14.2946C13.9073 14.4281 14.1637 14.5859 14.4015 14.7657C14.6515 14.939 14.88 15.1371 15.0829 15.3563C15.2262 15.1091 15.3927 14.8738 15.5805 14.6532C15.7594 14.4507 15.9566 14.2625 16.1701 14.0907C15.9481 13.979 15.7357 13.8521 15.5346 13.711C15.3596 13.5874 15.1957 13.451 15.0446 13.3032C14.9374 13.2047 14.8302 13.0992 14.7307 12.9938C14.5795 13.2231 14.4133 13.4439 14.233 13.6547C14.0378 13.8814 13.8255 14.0952 13.5976 14.2946H13.6359ZM36.3749 37.0547C36.2185 37.0552 36.0656 37.0116 35.937 36.9299C35.8083 36.8482 35.71 36.7323 35.6552 36.5977C35.4381 36.0674 35.0699 35.6004 34.5891 35.2454C34.1083 34.8904 33.5325 34.6605 32.9219 34.5797C32.7609 34.5595 32.611 34.4928 32.494 34.3891C32.377 34.2854 32.2989 34.1503 32.2712 34.0032C32.2428 33.8562 32.2661 33.7048 32.3377 33.5708C32.4092 33.4368 32.5254 33.3272 32.6693 33.2578C33.227 32.9846 33.7183 32.6099 34.1132 32.1566C34.5081 31.7032 34.7983 31.1808 34.9662 30.6211C35.0088 30.4779 35.0997 30.3507 35.2259 30.2579C35.352 30.165 35.507 30.1112 35.6685 30.1042C35.83 30.0971 35.9898 30.1372 36.1249 30.2187C36.2601 30.3002 36.3637 30.4189 36.4209 30.5578C36.6454 31.114 37.0353 31.6012 37.5463 31.9641C38.0149 32.3006 38.5724 32.5165 39.1618 32.5899C39.3308 32.612 39.487 32.6854 39.6054 32.7984C39.7238 32.9114 39.7977 33.0575 39.8153 33.2135C39.8329 33.3695 39.7932 33.5264 39.7025 33.6593C39.6119 33.7922 39.4754 33.8934 39.3149 33.9469C38.7419 34.1412 38.2367 34.474 37.8526 34.9102C37.4486 35.3521 37.1838 35.887 37.0869 36.4571C37.0641 36.6124 36.9854 36.7563 36.8633 36.8658C36.7413 36.9754 36.5828 37.0443 36.4132 37.0617L36.3749 37.0547ZM34.7059 33.6446C35.2667 33.9038 35.7662 34.2623 36.1759 34.6992C36.3192 34.452 36.4857 34.2168 36.6735 33.9961C36.8544 33.7953 37.0514 33.6073 37.263 33.4336C37.0421 33.3204 36.8298 33.1936 36.6276 33.0539C36.3314 32.8484 36.0617 32.6125 35.8237 32.3508C35.6764 32.5847 35.51 32.808 35.326 33.0188C35.1338 33.2391 34.9266 33.4481 34.7059 33.6446ZM37.554 13.5352C37.3975 13.5357 37.2447 13.4921 37.116 13.4104C36.9874 13.3287 36.889 13.2127 36.8343 13.0782C36.5545 12.3869 36.0768 11.7777 35.4516 11.3149C34.8263 10.8521 34.0768 10.5528 33.2818 10.4485C33.1242 10.4264 32.9781 10.3598 32.8638 10.2579C32.7494 10.1559 32.6726 10.0238 32.6439 9.87979C32.6153 9.73583 32.6362 9.58724 32.7039 9.45474C32.7716 9.32225 32.8826 9.21245 33.0215 9.14065C33.3767 8.97375 33.7106 8.77093 34.0168 8.53597C34.3454 8.28816 34.6455 8.01015 34.9126 7.70628C35.4095 7.11977 35.7739 6.44804 35.9844 5.7305C36.028 5.58758 36.1196 5.46098 36.2463 5.36882C36.3729 5.27666 36.5281 5.22366 36.6896 5.21742C36.851 5.21118 37.0105 5.25201 37.1451 5.33406C37.2798 5.41612 37.3827 5.5352 37.4391 5.67425C37.7403 6.39052 38.2485 7.01774 38.9091 7.48831C39.524 7.92476 40.2525 8.20594 41.0223 8.30394C41.1898 8.32811 41.3438 8.40267 41.4602 8.51593C41.5766 8.62919 41.6488 8.77473 41.6654 8.92972C41.6757 9.08046 41.6328 9.23024 41.5432 9.35687C41.4536 9.48351 41.3219 9.58027 41.1677 9.63284C40.42 9.88993 39.7596 10.3242 39.2537 10.8914C39.0443 11.1237 38.8669 11.3788 38.7254 11.6508C38.5132 12.0502 38.3686 12.477 38.2966 12.9164C38.2703 13.0703 38.1891 13.2118 38.0658 13.3187C37.9425 13.4255 37.784 13.4918 37.6152 13.5071L37.554 13.5352ZM35.1346 9.49925C35.5697 9.68785 35.9784 9.92393 36.3519 10.2024C36.7251 10.4689 37.0618 10.7758 37.3549 11.1164C37.5512 10.7479 37.7927 10.4011 38.0746 10.0828C38.3588 9.75067 38.6852 9.45089 39.0469 9.18987C38.6866 9.02392 38.3433 8.8286 38.021 8.60628C37.5897 8.29918 37.206 7.93963 36.8802 7.53753C36.6616 7.90375 36.4052 8.24986 36.1146 8.57112C35.818 8.90615 35.4901 9.21671 35.1346 9.49925Z" fill="black"/>
</svg>
