<svg width="40" height="40" viewBox="0 0 40 40" fill="none" xmlns="http://www.w3.org/2000/svg">
<rect width="40" height="40" rx="8" fill="#E8EDF5"/>
<g clip-path="url(#clip0_93_2020)">
<path fill-rule="evenodd" clip-rule="evenodd" d="M29.3984 13.9128L28.9616 13.6606C29.0128 13.3893 29.0128 13.1107 28.9616 12.8394L29.3984 12.5872C29.6305 12.4532 29.7736 12.2056 29.7736 11.9376C29.7736 11.6696 29.6307 11.4219 29.3986 11.2879C29.1665 11.1539 28.8805 11.1538 28.6484 11.2878L28.2106 11.5409C28.0011 11.3612 27.7602 11.2217 27.5 11.1294V10.625C27.5 10.2108 27.1642 9.875 26.75 9.875C26.3358 9.875 26 10.2108 26 10.625V11.1294C25.7398 11.2217 25.4989 11.3612 25.2894 11.5409L24.8516 11.2878C24.6195 11.1538 24.3335 11.1539 24.1014 11.2879C23.8693 11.4219 23.7264 11.6696 23.7264 11.9376C23.7264 12.2056 23.8695 12.4532 24.1016 12.5872L24.5384 12.8394C24.4872 13.1107 24.4872 13.3893 24.5384 13.6606L24.1016 13.9128C23.8074 14.0825 23.6639 14.4286 23.7518 14.7566C23.8397 15.0846 24.137 15.3126 24.4766 15.3125C24.6082 15.3129 24.7377 15.2783 24.8516 15.2122L25.2894 14.9591C25.4989 15.1388 25.7398 15.2783 26 15.3706V15.875C26 16.2892 26.3358 16.625 26.75 16.625C27.1642 16.625 27.5 16.2892 27.5 15.875V15.3706C27.7602 15.2783 28.0011 15.1388 28.2106 14.9591L28.6484 15.2122C28.7623 15.2783 28.8918 15.3129 29.0234 15.3125C29.363 15.3126 29.6603 15.0846 29.7482 14.7566C29.8361 14.4286 29.6926 14.0825 29.3984 13.9128ZM26 13.25C26 12.8358 26.3358 12.5 26.75 12.5C27.1642 12.5 27.5 12.8358 27.5 13.25C27.5 13.6642 27.1642 14 26.75 14C26.3358 14 26 13.6642 26 13.25ZM28.7516 17.7603C28.3431 17.8287 28.0673 18.2152 28.1356 18.6237C28.2118 19.0785 28.25 19.5389 28.25 20C28.2518 22.0196 27.5095 23.969 26.165 25.4759C25.3285 24.2638 24.1524 23.3261 22.7844 22.7806C24.2906 21.5943 24.8797 19.5838 24.2519 17.7721C23.6242 15.9604 21.9174 14.7455 20 14.7455C18.0826 14.7455 16.3758 15.9604 15.7481 17.7721C15.1203 19.5838 15.7094 21.5943 17.2156 22.7806C15.8476 23.3261 14.6715 24.2638 13.835 25.4759C11.6801 23.0477 11.1497 19.5813 12.4799 16.6198C13.81 13.6583 16.7535 11.7522 20 11.75C20.4611 11.7499 20.9215 11.7882 21.3763 11.8644C21.7827 11.9285 22.165 11.6532 22.2329 11.2473C22.3008 10.8414 22.029 10.4567 21.6237 10.385C17.4445 9.68194 13.2902 11.7612 11.3482 15.5279C9.40612 19.2947 10.1218 23.8848 13.1185 26.8815C16.1152 29.8782 20.7053 30.5939 24.4721 28.6518C28.2388 26.7098 30.3181 22.5555 29.615 18.3763C29.5466 17.9677 29.1601 17.692 28.7516 17.7603ZM17 19.25C17 17.5931 18.3431 16.25 20 16.25C21.6569 16.25 23 17.5931 23 19.25C23 20.9069 21.6569 22.25 20 22.25C18.3431 22.25 17 20.9069 17 19.25ZM14.945 26.5156C16.0476 24.7912 17.9532 23.7478 20 23.7478C22.0468 23.7478 23.9524 24.7912 25.055 26.5156C22.0817 28.828 17.9183 28.828 14.945 26.5156Z" fill="#0D141C"/>
</g>
<defs>
<clipPath id="clip0_93_2020">
<rect width="24" height="24" fill="white" transform="translate(8 8)"/>
</clipPath>
</defs>
</svg>
