<svg width="235" height="331" viewBox="0 0 235 331" fill="none" xmlns="http://www.w3.org/2000/svg">
<g filter="url(#filter0_d_11_479)">
<path d="M148.807 96.4989C148.807 96.4989 152.065 112.385 142.601 124.081C133.137 135.776 130.922 144.35 130.922 144.35L120.479 140.981C120.479 140.981 128.175 125.928 129.225 116.863C130.275 107.798 134.914 91.4996 134.914 91.4996C134.914 91.4996 135.534 87.8185 148.807 96.4989Z" fill="#DD917C"/>
<path d="M223.949 302.406L225.323 303.614L231 296.981L228.992 293.881L223.949 302.406Z" fill="#28284C"/>
<path d="M206.364 291.725C206.364 291.725 211.554 300.618 210.508 306.287C209.664 310.858 204.967 316.884 207.126 321.487C207.606 322.512 208.972 322.721 209.677 321.897L222.996 306.334C222.996 306.334 226.22 299.247 228.902 296.922C231.584 294.597 224.813 288.872 221.698 287.473C218.582 286.073 214.913 281.736 214.913 281.736L206.364 291.725Z" fill="#373560"/>
<path d="M215.692 279.56C215.115 284.786 210.697 289.585 208.349 291.8C207.544 292.558 206.303 292.574 205.473 291.844C196.219 283.694 144.746 237.821 143.347 224.563C141.807 209.991 145.882 134.916 147.788 131.355C149.692 127.791 148.856 122.503 148.856 122.503H174.184C174.184 122.503 199.201 163.798 185.651 174.857C180.366 179.169 176.096 186.049 172.853 192.833C170.3 198.179 168.382 203.466 167.111 207.397C165.858 211.266 165.231 213.817 165.231 213.817C165.231 213.817 182.067 223.104 185.651 235.526C189.233 247.95 215.692 279.56 215.692 279.56Z" fill="#80ADED"/>
<path d="M186.469 320.793V322.636H195.134L196.132 319.068L186.469 320.793Z" fill="#28284C"/>
<path d="M182.916 300.335C182.916 300.335 179.683 310.134 174.77 313.047C170.808 315.396 163.237 315.748 161.219 320.415C160.77 321.454 161.508 322.636 162.585 322.636H182.916C182.916 322.636 190.314 320.462 193.805 320.991C197.296 321.521 197.13 312.588 196.132 309.286C195.135 305.984 195.966 300.335 195.966 300.335H182.916V300.335Z" fill="#373560"/>
<path d="M197.027 32.3105C197.492 30.8554 198.85 29.7148 198.91 28.1867C198.984 26.3089 197.084 24.9394 196.678 23.1059C196.159 20.7674 198.173 18.2684 197.257 16.0589C196.722 14.7698 195.28 13.9243 195.089 12.5395C194.959 11.5999 195.458 10.6274 195.202 9.71492C195.032 9.1121 194.563 8.65212 194.113 8.22226C191.908 6.1172 189.573 3.93672 186.642 3.15801C185.35 2.81476 183.974 2.75613 182.757 2.19781C181.899 1.8042 181.197 1.10251 180.321 0.753661C174.823 -1.43455 165.672 1.87136 164.457 1.54383C154.07 -1.25626 144.124 7.56054 144.124 7.56054C139.809 10.157 142.678 10.4254 142.474 12.4934C142.218 15.1006 137.6 16.1492 138.348 18.6572C138.661 19.7064 139.889 20.313 140.082 21.3915C140.555 24.0378 134.86 24.5839 135.457 27.2043C135.589 27.7834 136.041 28.2416 136.199 28.814C136.752 30.8285 133.65 33.2794 135.266 34.5807C136.002 35.1734 137.253 34.8185 137.867 35.5393C138.7 36.5166 137.37 38.0681 137.813 39.2788C137.971 39.7095 138.24 40.1625 138.657 40.343C146.475 43.7307 142.384 47.3961 145.426 49.8194C147.868 51.764 151.239 52.131 153.752 53.9799C155.077 54.955 156.152 56.3325 157.678 56.9335C160.119 57.8942 162.788 56.586 165.375 56.1751C169.264 55.5573 173.171 57.0142 177.106 57.1326C179.245 57.1968 181.737 56.6174 182.641 54.6525C183.408 52.9827 182.861 50.6322 184.313 49.5241C184.969 49.0233 185.904 48.9279 186.435 48.2931C187.097 47.5029 186.815 46.3018 187.093 45.3049C187.616 43.4298 189.874 42.7676 191.785 42.5512C193.697 42.3348 195.92 42.0805 196.931 40.4232C198.364 38.0761 196.188 34.9355 197.027 32.3105Z" fill="#6D324A"/>
<path d="M160.98 94.7831C160.777 95.2562 156.837 117.91 150.47 119.778C144.101 121.646 139.753 121.688 140.412 117.584C140.536 116.81 140.501 115.735 140.348 114.496C139.694 109.166 136.859 100.792 135.098 100.237C132.925 99.5527 130.279 94.6257 133.386 90.3777C136.493 86.1295 139.212 64.6428 141.838 59.0373C144.937 52.4247 154.708 52.8066 154.708 52.8066C154.708 52.8066 161.185 94.3101 160.98 94.7831Z" fill="#FE717A"/>
<path d="M162.403 113.647C163.322 115.469 163.716 133.726 177.711 225.386C182.915 259.469 181.774 301.883 181.774 301.883C181.774 301.883 189.928 305.695 196.168 302.391C196.168 302.391 202.518 266.093 204.265 255.12C206.012 244.147 202.169 233.173 200.771 228.218C199.635 224.191 212.402 189.496 207.951 151.029C206.191 135.816 191.475 123.849 184.478 119.777L162.403 113.647Z" fill="#80ADED"/>
<path d="M180.815 106.426C182.637 85.0698 189.775 61.2694 184.65 58.5026C179.525 55.7359 180.289 54.4905 175.307 50.7308C170.325 46.971 171.917 47.7668 161.852 51.0932C155.804 53.0919 151.077 54.8623 151.077 54.8623C151.077 54.8623 141.534 75.6677 140.683 81.1744C139.372 89.6487 143.791 92.1088 143.791 92.1088C143.791 92.1088 148.671 107.067 149.382 113.506C149.589 115.383 148.855 122.504 148.855 122.504L188.474 119.778C188.474 119.778 180.317 112.265 180.815 106.426Z" fill="#E59F89"/>
<path d="M153.076 115.011L140.349 114.496C139.695 109.165 136.86 100.792 135.098 100.236C135.098 100.236 139.953 99.5013 142.102 92.7017L153.076 115.011Z" fill="#ED5D6B"/>
<path d="M181.8 105.954C181.721 106.301 181.77 106.699 181.917 107.143C183.074 110.664 190.368 116.859 188.474 119.778C187.917 120.635 184.952 121.232 180.873 121.643C180.873 121.643 180.871 121.643 180.866 121.645H180.85C180.833 121.647 180.812 121.647 180.782 121.652C180.095 121.72 179.375 121.784 178.63 121.841C178.448 121.855 178.257 121.872 178.057 121.888C166.293 122.764 148.855 122.504 148.855 122.504C148.855 122.504 148.855 122.502 148.857 122.497C148.892 122.407 149.237 121.515 149.517 120.05C149.999 117.518 150.285 113.272 148.452 108.483V108.479C145.547 100.88 143.844 92.3767 143.793 92.1147C143.791 92.1099 143.791 92.1075 143.791 92.1075C143.791 92.1075 143.788 92.1075 143.781 92.1027C143.66 92.0531 142.27 91.449 141.039 89.9763C139.369 87.9797 137.995 84.3855 140.492 78.4101C143.152 72.0477 145.48 64.0663 147 58.3385C147.278 57.2954 147.527 56.3278 147.748 55.4569C148.126 53.9677 160.982 51.3701 160.982 51.3701C160.982 51.3701 150.495 70.0476 153.048 73.6419C155.561 77.1818 173.807 50.7607 175.307 50.7298C175.799 50.7204 188.562 54.583 190.188 59.214C191 61.5274 182.503 102.853 181.8 105.954Z" fill="#FE717A"/>
<path d="M146.742 85.0698C146.742 85.0698 148.083 62.5174 159.056 51.7808C159.056 51.7808 153.813 51.1497 152.678 52.8859C152.678 52.8859 143.401 68.6663 143.091 84.2423C143.091 84.2423 142.643 87.379 146.742 85.0698Z" fill="#80ADED"/>
<path d="M193.634 222.932C193.876 225.549 188.415 227.088 190.449 229.954C190.97 230.686 191.858 231.068 192.57 231.568C193.595 232.286 194.519 233.152 195.336 234.103C196.948 235.979 198.128 238.225 198.923 240.57C200.791 246.083 200.429 251.994 199.453 257.649C198.414 263.675 196.949 269.635 195.704 275.619C194.266 282.525 192.884 289.444 191.555 296.372C191.448 296.929 192.29 297.167 192.397 296.608C194.766 284.262 197.591 272.008 199.969 259.667C201.786 250.231 202.209 238.519 194.173 231.705C193.282 230.949 191.723 230.345 191.141 229.342C190.555 228.332 191.426 227.511 192.115 226.83C193.194 225.762 194.666 224.64 194.508 222.932C194.456 222.37 193.582 222.364 193.634 222.932Z" fill="#5684D6"/>
<path d="M194.721 141.813C197.91 146.155 198.539 151.596 198.69 156.855C198.853 162.533 198.826 168.236 198.702 173.914C198.448 185.558 197.384 197.362 193.45 208.387C192.522 210.988 191.117 213.557 190.776 216.333C190.635 217.48 190.714 218.66 191.225 219.709C191.836 220.96 193.304 221.683 193.65 223.05C193.79 223.601 194.632 223.367 194.493 222.814C194.243 221.83 193.601 221.25 192.924 220.539C191.802 219.362 191.447 218.001 191.651 216.39C191.983 213.76 193.323 211.312 194.211 208.848C196.186 203.367 197.461 197.65 198.266 191.878C199.857 180.469 199.854 168.785 199.575 157.285C199.441 151.748 198.838 145.946 195.476 141.367C195.144 140.915 194.385 141.356 194.721 141.813Z" fill="#5684D6"/>
<path opacity="0.5" d="M148.855 122.504C148.855 122.504 150.857 125.306 160.563 125.856C170.269 126.407 180.874 121.643 180.874 121.643L148.855 122.504Z" fill="#5684D6"/>
<path d="M143.525 82.0484C146.875 82.6067 158.116 84.3291 164.216 83.4126C165.118 83.2769 165.948 83.9269 166.031 84.8471C166.423 89.2257 167.163 100.552 164.962 106.19C162.197 113.27 170.581 121.643 170.581 121.643C170.581 121.643 152.374 123.95 146.833 122.504C141.291 121.057 141.923 117.281 142.558 107.134C143.168 97.3754 139.142 90.8905 142.162 82.8527C142.373 82.2906 142.939 81.9508 143.525 82.0484Z" fill="#80ADED"/>
<path d="M145.498 84.6384C145.498 83.9412 144.94 83.376 144.252 83.376C143.564 83.376 143.006 83.9412 143.006 84.6384C143.006 85.3355 143.564 85.9008 144.252 85.9008C144.94 85.9008 145.498 85.3355 145.498 84.6384Z" fill="#4F4A77"/>
<path d="M152.746 21.9739C152.746 21.9739 149.097 17.109 153.123 10.9058C157.149 4.7025 160.154 2.73227 165.834 2.73227C171.514 2.73227 175.775 1.56448 180.241 5.06759C184.707 8.57044 191.286 21.4855 186.82 30.5725C182.354 39.6595 174.876 37.1049 171.693 39.3531C168.51 41.6015 152.746 21.9739 152.746 21.9739Z" fill="#6D324A"/>
<path d="M176.076 53.1319C176.076 53.1319 169.6 58.5756 161.245 55.0843C161.245 55.0843 162.085 50.7308 162.089 46.4577C162.09 44.592 161.933 42.7417 161.476 41.2744C161.407 41.0486 161.329 40.832 161.245 40.6265C159.353 36.0259 174.85 31.6677 174.964 31.6365C174.924 31.7004 173.623 33.7517 173.165 37.061C173.07 37.7435 173.011 38.4801 173.007 39.2636C173.002 40.1146 173.061 41.0207 173.208 41.9736C174.158 48.1292 176.076 53.1319 176.076 53.1319Z" fill="#E59F89"/>
<path d="M173.165 37.061C173.069 37.7435 173.01 38.4801 173.006 39.2636C169.917 43.607 162.216 46.4113 162.089 46.4574C162.09 44.5917 161.932 42.7414 161.476 41.2741C164.959 39.5927 171.189 36.7692 173.165 37.061Z" fill="#D18975"/>
<path d="M173.501 38.4836C166.118 44.3303 158.863 44.0025 157.099 43.4737C155.334 42.944 155.281 41.3372 152.704 37.1668C150.929 34.2916 150.483 31.5794 150.713 29.5383C150.816 28.6178 151.058 27.8341 151.377 27.2337C151.476 27.045 151.558 26.8733 151.624 26.7127C152.24 25.2219 151.517 24.7547 151.38 22.1739C151.348 21.5711 151.545 20.7953 151.875 19.9455C152.022 19.5684 152.195 19.1753 152.387 18.778C153.805 15.8321 156.217 12.5752 156.217 12.5752C168.34 3.90951 177.575 13.8584 178.464 18.5746C179.353 23.2898 180.882 32.6369 173.501 38.4836Z" fill="#E59F89"/>
<path d="M169.39 20.3063C169.39 20.3063 168.011 17.0832 162.113 18.7901C158.607 19.8052 159.18 21.4661 161.19 21.1617C163.199 20.8579 163.761 18.8919 169.39 20.3063Z" fill="#6D324A"/>
<path d="M154.027 21.3991C153.234 21.2499 152.496 20.3067 151.875 19.9454C152.023 19.5683 152.196 19.1752 152.387 18.7778C152.639 18.7813 152.928 18.8439 153.261 18.9844C155.555 19.9597 155.353 21.6515 154.027 21.3991Z" fill="#6D324A"/>
<path d="M155.721 25.6669C155.774 26.6004 154.393 23.8571 153.489 23.67C152.661 23.4987 151.642 24.041 150.901 23.661C150.711 23.5634 150.789 23.2716 151.002 23.2794C151.373 23.2927 151.887 23.2527 152.442 23.0334C153.532 22.603 155.575 23.1128 155.721 25.6669Z" fill="#6D324A"/>
<path d="M155.246 25.63C154.946 25.8557 154.553 25.9501 154.199 25.8283C153.845 25.7065 153.559 25.4325 153.347 25.1207C153.093 24.7466 153.022 24.232 153.31 23.8844C153.489 23.6697 153.664 23.4634 153.664 23.4634L154.479 24.0998L154.89 24.3074L155.172 24.7796L155.343 25.0493C155.343 25.0493 155.424 25.496 155.246 25.63Z" fill="#6D324A"/>
<path d="M160.738 24.6728C160.738 24.6728 161.261 22.2722 162.369 21.4964C163.477 20.7206 167.024 20.7049 167.688 21.4244C168.353 22.144 168.576 23.3938 168.576 23.3938C168.576 23.3938 164.191 20.6508 160.738 24.6728Z" fill="#E5A38F"/>
<path d="M166.253 24.1281C166.253 24.951 165.595 25.6178 164.783 25.6178C163.97 25.6178 163.312 24.951 163.312 24.1281C163.312 23.8576 163.383 23.605 163.509 23.3862C163.628 23.174 163.799 22.9944 164.004 22.8652C164.559 22.8606 165.104 22.8732 165.615 22.9001C165.909 23.1045 166.125 23.4131 166.211 23.7747C166.239 23.888 166.253 24.0058 166.253 24.1281Z" fill="#6D324A"/>
<path d="M168.576 23.7364C168.454 24.3854 167.307 24.0363 166.671 23.8937C166.517 23.859 166.363 23.8185 166.211 23.7748C165.736 23.6378 165.267 23.475 164.78 23.3953C164.358 23.3258 163.93 23.3247 163.509 23.3863C162.252 23.5694 161.067 24.3022 160.385 25.3914C160.42 25.3162 161.484 22.3968 164.558 22.0623C166.793 21.8187 168.665 23.2671 168.576 23.7364Z" fill="#6D324A"/>
<g opacity="0.2">
<path d="M171.099 27.1468C170.124 26.4646 168.747 26.2615 167.522 26.6191C166.85 26.8153 166.179 27.0112 165.507 27.2073C164.187 27.5927 162.786 28.0238 162.032 28.9816C161.816 29.2564 161.686 29.5717 161.699 29.8944C161.733 30.6976 162.552 31.006 163.329 31.1904C165.419 31.6866 167.727 31.5957 169.743 30.938C170.065 30.833 170.383 30.7091 170.688 30.5665C172.262 29.8291 172.467 28.1038 171.099 27.1468Z" fill="#DD5865"/>
</g>
<g opacity="0.2">
<path d="M154.069 28.9691C154.056 29.5058 153.736 29.7123 153.431 29.8357C152.613 30.167 151.709 30.1062 150.92 29.6662C150.85 29.6281 150.782 29.5855 150.713 29.5383C150.816 28.6178 151.058 27.8341 151.377 27.2337C151.476 27.045 151.558 26.8733 151.624 26.7126C151.68 26.7294 151.735 26.7521 151.79 26.779C152.052 26.9104 152.316 27.0418 152.579 27.1731C153.095 27.4303 153.644 27.7187 153.939 28.3585C154.024 28.5424 154.075 28.7535 154.069 28.9691Z" fill="#DD5865"/>
</g>
<path d="M155.376 21.9869C156.493 22.5572 156.985 23.8169 156.885 25.0425C156.763 26.5427 155.797 27.8112 154.91 28.9465C154.494 29.4792 153.921 30.2171 154.368 30.9036C154.867 31.6711 156.259 31.956 157.067 32.1239C157.241 32.1602 157.315 31.8897 157.141 31.8532C156.465 31.7127 155.615 31.5272 155.045 31.1179C153.873 30.2744 155.001 29.3038 155.542 28.5846C156.148 27.7789 156.709 26.9166 156.993 25.9361C157.443 24.3867 157.024 22.5143 155.516 21.7446C155.357 21.6636 155.217 21.9056 155.376 21.9869Z" fill="#BF6A58"/>
<path d="M161.995 34.4804C161.787 35.3034 160.877 38.0445 157.926 38.4853C155.025 38.9208 154.774 35.7575 154.701 34.865C154.688 34.6859 154.688 34.5763 154.688 34.5763C154.69 34.5763 154.69 34.5737 154.69 34.5737C154.735 34.5174 155.434 33.6758 156.185 33.585C156.481 33.5477 156.787 33.6276 157.061 33.9189C157.066 33.9216 157.066 33.9242 157.066 33.9242C157.066 33.9242 158.06 33.1413 158.873 33.7238C159.593 34.2368 160.848 34.6376 161.721 34.3837C161.724 34.3837 161.729 34.381 161.732 34.381C161.774 34.3677 161.819 34.3544 161.861 34.3357C161.879 34.3517 161.895 34.3677 161.908 34.3839C161.94 34.4135 161.969 34.4482 161.995 34.4804Z" fill="#FC7272"/>
<path d="M159.036 36.8557L158.949 36.8445C158.545 37.0078 158.134 37.1728 157.701 37.2147C157.538 37.2306 157.367 37.2298 157.218 37.3002C157.069 37.3706 156.949 37.5419 157.001 37.6999C157.051 37.8526 157.228 37.9179 157.385 37.9419C157.894 38.0203 158.415 37.8785 158.881 37.6544C159.054 37.571 159.239 37.4542 159.281 37.2645C159.319 37.0931 159.204 36.9015 159.036 36.8557Z" fill="#FF8894"/>
<g opacity="0.2">
<path d="M156.355 39.9143C157.282 39.5769 158.22 39.5564 159.16 39.8584C159.5 39.9679 159.646 39.4261 159.307 39.3171C158.283 38.988 157.219 39.0053 156.208 39.3728C155.875 39.4941 156.018 40.0366 156.355 39.9143Z" fill="#FE717A"/>
</g>
<g opacity="0.2">
<path d="M155.252 30.8434C156.035 30.9649 156.773 31.2053 157.475 31.58C157.79 31.7484 158.071 31.2639 157.755 31.0952C157.013 30.6989 156.229 30.4308 155.399 30.3019C155.05 30.248 154.9 30.7887 155.252 30.8434Z" fill="#FE717A"/>
</g>
<path d="M162.049 10.9061C162.049 10.9061 166.324 10.4683 168.576 14.7011C170.828 18.9338 175.543 24.5532 176.679 25.0641C177.816 25.575 176.085 31.0094 176.085 31.0094C176.085 31.0094 177.711 34.0744 174.764 37.3664C174.764 37.3664 179.977 35.5569 181.777 31.989C183.578 28.4212 180.337 15.504 177.095 11.344C173.854 7.18422 166.419 6.01642 164.482 6.81938C162.544 7.62207 162.049 10.9061 162.049 10.9061Z" fill="#6D324A"/>
<path d="M162.049 10.9062C162.049 10.9062 157.454 11.198 154.111 15.8236C153.791 16.2676 153.465 16.6772 153.258 17.1292C151.6 20.745 153.622 5.06803 164.482 6.81945C175.342 8.57087 162.049 10.9062 162.049 10.9062Z" fill="#6D324A"/>
<path d="M161.858 34.3308C161.816 34.3468 161.773 34.3655 161.731 34.3814C161.729 34.3814 161.723 34.3841 161.721 34.3841C158.91 35.4581 154.69 34.5739 154.69 34.5739C154.69 34.5739 155.117 36.4814 157.114 36.837C158.849 37.1496 161.302 34.956 161.908 34.3844C161.895 34.3684 161.879 34.3524 161.861 34.3361L161.858 34.3308Z" fill="white"/>
<path d="M161.677 34.2577C161.887 34.4282 162.06 34.6438 162.197 34.8775C162.24 34.9511 162.354 34.8842 162.31 34.8104C162.168 34.5676 161.988 34.3408 161.77 34.1636C161.704 34.1103 161.611 34.2038 161.677 34.2577Z" fill="#E04B5A"/>
<path d="M154.603 34.2647C154.689 34.4651 154.624 34.6892 154.459 34.8243C154.394 34.8784 154.487 34.972 154.552 34.9184C154.766 34.7425 154.825 34.4496 154.717 34.1975C154.683 34.1195 154.57 34.1869 154.603 34.2647Z" fill="#E04B5A"/>
<path d="M118.737 141.279C120.031 141.71 121.279 142.216 122.666 142.013C123.937 141.828 125.097 141.239 126.23 140.657C126.396 140.572 126.551 140.821 126.384 140.907C125.222 141.504 124.021 142.12 122.717 142.311C121.293 142.519 120.008 142.01 118.675 141.567C118.499 141.508 118.559 141.22 118.737 141.279Z" fill="#D18774"/>
<path d="M161.084 281.86V298.716V305.844C161.084 312.78 155.533 318.407 148.684 318.407H95.1638C91.5008 318.407 88.5312 315.396 88.5312 311.685C88.5312 309.844 88.663 308.035 88.9216 306.267C89.1037 304.982 89.3541 303.718 89.6679 302.481C89.9922 301.198 90.38 299.943 90.8309 298.716C92.6822 293.685 95.5805 289.17 99.2596 285.443C105.072 279.554 112.831 275.632 121.476 274.758H121.484C122.694 274.633 123.923 274.571 125.165 274.571H153.893C157.864 274.571 161.084 277.834 161.084 281.86Z" fill="#FE717A"/>
<path d="M153.223 314.041C154.591 308.173 151.004 302.293 145.211 300.907C139.419 299.521 133.614 303.155 132.247 309.023C130.879 314.892 134.466 320.772 140.258 322.158C146.051 323.544 151.855 319.91 153.223 314.041Z" fill="#4F4A77"/>
<path d="M142.736 320.642C137.753 320.642 133.7 316.534 133.7 311.486C133.7 306.439 137.753 302.331 142.736 302.331C147.718 302.331 151.771 306.439 151.771 311.486C151.771 316.534 147.718 320.642 142.736 320.642ZM142.736 303.563C138.424 303.563 134.916 307.116 134.916 311.486C134.916 315.856 138.424 319.41 142.736 319.41C147.047 319.41 150.555 315.856 150.555 311.486C150.555 307.117 147.047 303.563 142.736 303.563Z" fill="#373560"/>
<path d="M95.5726 320.568C97.9889 318.12 97.9889 314.151 95.5726 311.703C93.1562 309.255 89.2386 309.254 86.8222 311.702C84.4059 314.15 84.4059 318.12 86.8222 320.568C89.2386 323.016 93.1562 323.016 95.5726 320.568Z" fill="#4F4A77"/>
<path d="M91.2036 321.393C88.3419 321.393 86.0142 319.037 86.0142 316.138C86.0142 313.238 88.3419 310.878 91.2036 310.878C94.0635 310.878 96.3913 313.238 96.3913 316.138C96.3913 319.037 94.0635 321.393 91.2036 321.393ZM91.2036 311.587C88.7278 311.587 86.7133 313.627 86.7133 316.138C86.7133 318.644 88.7275 320.685 91.2036 320.685C93.6797 320.685 95.6921 318.644 95.6921 316.138C95.6921 313.627 93.6797 311.587 91.2036 311.587Z" fill="#373560"/>
<path opacity="0.6" d="M125.418 298.716H90.8308C92.6822 293.685 95.5805 289.17 99.2595 285.443C105.072 279.554 112.831 275.632 121.476 274.758H121.484C122.694 274.633 123.923 274.571 125.165 274.571H131.732C128.828 278.103 124.778 285.477 125.418 298.716Z" fill="#4F4A77"/>
<path d="M161.084 298.85H90.8317C90.7593 298.85 90.7007 298.788 90.7007 298.715C90.7007 298.642 90.7596 298.581 90.8317 298.581H161.084C161.157 298.581 161.215 298.642 161.215 298.715C161.215 298.788 161.157 298.85 161.084 298.85Z" fill="#373560"/>
<path d="M147.473 298.85C147.4 298.85 147.342 298.788 147.342 298.715V274.571C147.342 274.498 147.401 274.436 147.473 274.436C147.545 274.436 147.604 274.497 147.604 274.571V298.715C147.604 298.788 147.545 298.85 147.473 298.85Z" fill="#373560"/>
<path d="M62.4574 312.161V322.405H46.0193C46.0193 319.575 47.1507 317.015 48.981 315.161C50.8087 313.307 53.3376 312.161 56.1278 312.161H62.4574Z" fill="#ED5D6B"/>
<path d="M161.752 10.9235C162.974 10.4995 164.226 10.2298 165.523 10.2018C166.344 10.1839 166.958 10.2335 167.638 10.7252C168.228 11.1521 168.292 11.5079 168.686 12.0406C169.656 13.355 171.195 12.6253 172.538 12.7018C173.217 12.7407 173.945 13.3689 174.196 14.0338C174.272 14.2345 174.168 14.6278 174.223 14.8383C174.256 14.9671 174.306 15.1168 174.373 15.233C174.69 15.7783 175.356 16.0147 175.942 16.0714C177.28 16.2007 179.608 15.362 179.395 17.6963C179.331 18.4038 179.005 18.8939 179.432 19.5556C180.314 20.9233 185.373 21.4022 183.713 23.7188C182.944 24.7931 183.453 25.2944 184.445 25.9603C185.043 26.3625 185.815 26.9586 186.029 27.7107C186.259 28.523 185.901 29.1066 185.563 29.7686C185.28 30.3205 184.889 30.8953 184.947 31.5515C184.991 32.0527 185.283 32.4269 185.613 32.7765C186.165 33.3626 186.987 33.7306 186.464 34.8808C186.304 35.2313 185.941 35.5143 185.714 35.8237C185.374 36.2874 185.157 36.746 185.288 37.3334C185.369 37.6929 185.699 37.9972 185.763 38.3416C185.942 39.2956 185.339 39.9253 185.107 40.7115C184.606 42.4102 186.884 43.1193 187.856 43.8746C187.976 43.9679 188.131 43.8144 188.098 43.6859C188.027 43.4149 187.956 43.1438 187.886 42.8725C187.831 42.6649 187.513 42.7529 187.568 42.9613C187.639 43.2323 187.709 43.5033 187.78 43.7746C187.861 43.7118 187.942 43.6489 188.022 43.586C186.894 42.7092 184.671 42.1048 185.748 40.2755C186.076 39.7175 186.426 39.391 186.259 38.6955C186.184 38.3869 185.988 38.1444 185.875 37.8547C185.402 36.6373 185.703 36.402 186.366 35.558C186.683 35.1542 187.036 34.7196 186.998 34.1687C186.965 33.6786 186.655 33.3303 186.334 32.9956C185.749 32.3861 185.113 32.0434 185.347 30.9729C185.464 30.4348 185.868 29.9613 186.099 29.4682C186.746 28.0931 186.275 26.9347 185.117 26.024C184.8 25.7751 184.085 25.494 183.871 25.1624C183.266 24.2212 184.099 23.9688 184.378 23.3956C184.616 22.906 184.581 22.4482 184.249 22.0047C183.779 21.3776 182.926 21.1005 182.246 20.8073C181.741 20.5896 181.145 20.4281 180.687 20.1259C179.976 19.6569 179.572 20.051 179.601 18.1962C179.605 17.9206 179.783 17.6342 179.795 17.3514C179.861 15.7439 178.19 15.6442 177.012 15.6959C176.093 15.7364 175.301 15.8793 174.795 14.9527C174.449 14.3176 174.657 14.2227 174.487 13.5885C174.356 13.1018 174.017 12.785 173.573 12.583C172.72 12.1949 171.795 12.4436 170.911 12.5065C169.76 12.5883 169.253 12.1904 168.623 11.2438C168.408 10.9216 168.26 10.6117 167.944 10.3764C166.326 9.171 163.359 10.0131 161.665 10.6008C161.465 10.6706 161.55 10.9933 161.752 10.9235Z" fill="#894966"/>
<path d="M161.875 10.4061C163.626 8.61575 166.912 5.74291 169.407 7.67981C170.588 8.59683 171.092 9.66789 172.735 9.6535C174.32 9.63964 175.916 8.67651 177.5 8.99791C179.713 9.44669 179.257 12.1437 180.289 13.6334C182.313 16.5537 188.734 13.1044 188.589 18.0452C188.548 19.446 187.843 21.0082 188.428 22.3806C188.973 23.6601 190.331 23.8072 191.405 24.4233C192.969 25.3212 192.506 26.7637 192.503 28.2332C192.502 29.0111 192.669 29.7781 192.995 30.4827C193.708 32.0222 195.057 33.1125 196.674 33.5229C196.88 33.5751 196.968 33.2532 196.762 33.201C194.327 32.583 192.72 30.3638 192.851 27.8294C192.926 26.377 193.088 25.0547 191.71 24.2157C191.007 23.788 190.142 23.6523 189.478 23.1561C188.309 22.2817 188.514 20.8989 188.707 19.6362C188.902 18.3616 189.21 16.8934 188.299 15.8149C187.398 14.7495 185.856 14.6836 184.579 14.6796C183.494 14.6764 182.269 14.7569 181.304 14.1554C180.126 13.4215 180.043 11.9813 179.647 10.7808C178.461 7.18306 175.166 9.40059 172.577 9.31637C170.294 9.24202 169.679 6.37211 167.216 6.68525C165.079 6.95707 163.097 8.68184 161.641 10.17C161.492 10.3227 161.725 10.559 161.875 10.4061Z" fill="#894966"/>
<path d="M161.912 10.3992C160.342 8.91351 157.685 9.00465 155.747 9.64078C154.859 9.93206 153.982 10.4363 153.494 11.2717C153.223 11.7362 153.136 12.253 152.986 12.7633C152.6 14.0745 151.799 14.6387 150.462 14.6448C149.362 14.6499 148.3 14.5094 147.336 15.1663C146.546 15.7044 146.03 16.586 145.935 17.5416C145.831 18.5906 146.305 19.7602 145.405 20.6016C144.61 21.344 143.534 21 142.662 20.6445C141.754 20.274 140.958 19.8985 140.033 20.3694C139.844 20.4659 140.01 20.7543 140.2 20.6578C142.039 19.7221 144.019 22.6181 145.752 20.7122C146.467 19.9252 146.249 19.0052 146.256 18.0277C146.273 15.6722 148.073 14.9158 150.097 14.9697C150.855 14.9899 151.709 15.0302 152.361 14.5622C153.182 13.9727 153.196 12.9571 153.502 12.0771C154.494 9.21997 159.681 8.74641 161.679 10.6359C161.834 10.7819 162.068 10.5463 161.912 10.3992Z" fill="#894966"/>
<path d="M161.906 11.0852C162.812 11.4322 163.54 11.8194 163.97 12.7849C164.215 13.3344 164.065 14.07 164.267 14.6568C164.437 15.1501 164.729 15.6242 165.254 15.7793C165.523 15.8587 165.798 15.7375 166.053 15.787C166.626 15.8982 167.384 16.4248 167.66 16.8925C167.703 16.9652 167.782 17.2589 167.838 17.3724C168.294 18.2964 169.366 18.5557 169.788 19.5263C170.043 20.1136 170.056 20.6098 170.56 21.0522C171.182 21.5969 171.849 21.7664 172.22 22.6091C172.368 22.9446 172.343 23.3151 172.555 23.6338C172.939 24.2134 173.624 24.4018 174.255 24.5732C175.475 24.9044 176.716 25.1576 177.975 25.265C178.186 25.2831 178.185 24.9489 177.975 24.9311C176.666 24.8194 174.908 24.6433 173.707 24.0492C172.808 23.6045 172.782 22.9726 172.437 22.1867C172.332 21.9452 172.207 21.7696 172.016 21.5897C171.72 21.311 171.297 21.2142 170.997 20.9544C170.352 20.3964 170.284 19.8428 170.016 19.1268C169.735 18.3739 169.252 18.182 168.64 17.7034C167.935 17.1528 168.051 16.2158 167.396 15.6668C166.599 14.9993 165.485 15.9101 164.758 14.9681C164.116 14.1355 164.582 12.8097 163.914 11.9265C163.45 11.3136 162.681 11.0266 161.994 10.7633C161.795 10.6871 161.709 11.0098 161.906 11.0852Z" fill="#894966"/>
<path d="M163.013 10.9242C163.013 10.9242 164.563 10.5437 165.222 12.8148C165.881 15.0858 167.903 14.192 168.211 15.3292C168.519 16.4663 168.538 16.7818 169.77 17.6722C171.001 18.5628 169.638 19.5057 171.112 20.1011C171.112 20.1011 172.579 20.4561 172.637 21.2444C172.694 22.0327 174.207 23.3094 175.59 22.8966C176.974 22.4838 173.723 17.6722 173.723 17.6722L166.853 11.5233L164.299 9.83105L163.013 10.9242Z" fill="#6D324A"/>
<path d="M172.995 25.243C172.995 25.243 175.788 20.9026 178.402 22.8688C181.017 24.835 178.337 28.47 177.329 29.8641C176.25 31.3568 175.624 31.3685 173.723 30.8869C171.821 30.4053 172.995 25.243 172.995 25.243Z" fill="#E59F89"/>
<path d="M173.581 30.5345C175.727 33.7253 178.742 28.2061 179.26 26.5429C179.657 25.2707 179.716 23.7015 178.544 22.8296C177.271 21.8822 175.724 22.3887 174.694 23.4318C174.544 23.584 174.777 23.8201 174.927 23.668C175.999 22.582 177.986 22.1254 178.905 23.7108C179.486 24.7123 179.125 26.0459 178.722 27.0365C178.155 28.4308 175.665 33.0412 173.866 30.3661C173.747 30.1894 173.461 30.3562 173.581 30.5345Z" fill="#BF6A58"/>
<path d="M176.596 23.7311C176.131 23.9342 175.667 24.2124 175.441 24.6945C175.189 25.2309 175.429 25.4399 175.455 25.9737C175.52 27.3059 174.531 27.1087 174.132 28.0046C173.975 28.3569 174.013 28.6072 174.163 28.9382C174.252 29.1333 174.536 28.9638 174.448 28.7695C174.258 28.3514 174.831 27.7069 175.116 27.4751C175.196 27.4101 175.287 27.3528 175.362 27.2814C175.549 27.1017 175.717 26.9165 175.805 26.6657C175.885 26.4387 175.871 26.2665 175.82 26.0368C175.685 25.4281 175.567 25.778 175.949 24.934C176.253 24.2627 176.204 24.2633 176.762 24.0194C176.957 23.9347 176.789 23.6469 176.596 23.7311Z" fill="#BF6A58"/>
<path d="M161.242 85.2488C161.242 85.2488 169.023 56.0988 182.293 53.2201C182.293 53.2201 177.27 49.325 175.307 50.7307C175.307 50.7307 165.672 56.7357 157.466 84.8811L157.962 86.3247L161.242 85.2488Z" fill="#80ADED"/>
<path d="M161.698 85.9182C161.698 85.221 161.14 84.6558 160.452 84.6558C159.764 84.6558 159.206 85.221 159.206 85.9182C159.206 86.6153 159.764 87.1806 160.452 87.1806C161.14 87.1803 161.698 86.6151 161.698 85.9182Z" fill="#4F4A77"/>
<path opacity="0.5" d="M172.853 192.833C170.3 198.179 168.382 203.467 167.111 207.397C167.111 207.397 161.03 199.304 166.101 190.222C171.173 181.141 157.032 159.505 161.697 152.55C161.697 152.55 172.483 177.809 172.853 192.833Z" fill="#5684D6"/>
<path d="M157.888 213.251C161.025 212.815 164.121 213.421 166.879 214.995C167.064 215.101 167.231 214.813 167.045 214.707C164.204 213.085 161.03 212.48 157.801 212.929C157.591 212.958 157.68 213.28 157.888 213.251Z" fill="#5684D6"/>
<path d="M175.069 133.675C177.247 136.3 179.877 138.592 183.003 139.971C186.627 141.57 190.701 141.497 194.584 141.493C195.008 141.493 195.009 140.825 194.584 140.825C190.797 140.829 186.792 140.92 183.259 139.356C180.209 138.006 177.661 135.765 175.535 133.203C175.262 132.873 174.798 133.348 175.069 133.675Z" fill="#5684D6"/>
<path d="M157.83 150.828C162.075 151.966 163.104 156.692 164.364 160.343C165.457 163.509 166.551 166.677 167.542 169.877C169.873 177.408 171.466 185.107 172.535 192.921C172.593 193.345 173.228 193.165 173.171 192.744C172.036 184.45 170.29 176.307 167.749 168.337C166.648 164.884 165.444 161.467 164.268 158.04C163.126 154.717 161.723 151.181 158.005 150.184C157.594 150.073 157.419 150.718 157.83 150.828Z" fill="#5684D6"/>
<path d="M177.13 222.716C176.428 226.093 177.505 229.313 178.503 232.508C179.708 236.363 180.149 240.284 180.453 244.303C181.055 252.276 180.982 260.281 181.274 268.267C181.281 268.481 181.611 268.483 181.603 268.267C181.317 260.457 181.379 252.632 180.821 244.833C180.564 241.236 180.306 237.559 179.322 234.077C178.282 230.393 176.636 226.711 177.448 222.805C177.492 222.596 177.174 222.506 177.13 222.716Z" fill="#5684D6"/>
<path d="M202.803 263.215C202.027 267.328 201.356 271.478 200.442 275.562C199.786 278.493 199.473 281.304 199.151 284.293C199.128 284.506 199.458 284.504 199.481 284.293C199.644 282.777 199.738 281.253 199.914 279.739C200.095 278.183 200.536 276.703 200.863 275.176C201.706 271.24 202.375 267.259 203.121 263.304C203.16 263.094 202.843 263.003 202.803 263.215Z" fill="#5684D6"/>
<path d="M96.0457 307.482C95.9526 307.482 95.8576 307.478 95.7627 307.467C81.1215 305.888 71.6319 295.577 72.6865 282.39C74.0622 265.172 93.583 247.665 133.21 249.894C166.492 251.762 193.223 240.877 208.466 219.222C222.18 199.739 225.076 173.671 216.023 151.194C204.689 123.051 185.907 112.378 175.72 108.522C166.582 105.059 159.272 105.14 156.993 106.308C150.917 109.421 145.142 116.848 145.083 116.923C144.186 118.086 142.527 118.288 141.381 117.382C140.234 116.473 140.032 114.794 140.929 113.631C141.193 113.289 147.496 105.184 154.614 101.538C159.122 99.2299 168.345 100.027 177.567 103.517C188.562 107.679 208.814 119.147 220.907 149.177C230.636 173.335 227.516 201.363 212.761 222.323C196.428 245.525 168.062 257.183 132.918 255.231C96.8117 253.159 79.1189 268.106 77.9425 282.822C77.2583 291.385 82.6759 300.683 96.3214 302.154C97.7695 302.311 98.8183 303.625 98.6644 305.091C98.52 306.466 97.376 307.482 96.0457 307.482Z" fill="#373560"/>
<path d="M197.461 78.685C196.103 91.7018 210.547 100.646 205.778 120.424C205.712 120.695 205.571 120.942 205.372 121.135C203.487 122.96 198.461 130.251 181.307 130.19C166.379 130.137 157.555 133.023 157.555 133.023L153.076 120.894C153.076 120.894 156.289 126.107 178.399 116.74C186.812 113.175 189.071 111.811 189.071 111.811C189.071 111.811 182.643 95.2926 180.005 89.8494C177.367 84.4059 198.83 65.5794 197.461 78.685Z" fill="#E59F89"/>
<path d="M182.293 53.2202C182.293 53.2202 189.837 55.1185 192.122 62.5996C194.408 70.0807 204.473 79.4764 205.66 88.2934C206.199 92.2946 202.628 94.3051 195.177 92.7018C187.727 91.0988 185.423 102.766 179.349 99.114C173.274 95.4625 176.543 74.9041 176.543 74.9041L182.293 53.2202Z" fill="#FE717A"/>
<path d="M174.216 80.6131C175.582 82.6411 176.589 84.6108 176.854 87.0863C177.074 89.1394 176.962 91.2157 177.26 93.2621C177.702 96.3008 179.343 99.503 182.631 99.9872C183.046 100.048 183.225 99.4049 182.806 99.3431C178.481 98.7062 177.817 93.7442 177.683 90.1542C177.62 88.4796 177.589 86.782 177.2 85.1441C176.771 83.3324 175.811 81.7982 174.785 80.276C174.548 79.9229 173.976 80.2568 174.216 80.6131Z" fill="#ED5D6B"/>
<path d="M184.43 87.1806C184.43 87.1806 193.484 93.4912 198.913 93.23C198.913 93.23 191.287 90.7306 189.309 85.3705C187.331 80.0107 181.168 85.1328 184.43 87.1806Z" fill="#ED5D6B"/>
<path d="M144.627 90.48C146.001 93.291 147.941 95.8707 150.924 97.0063C151.123 97.0819 151.209 96.7592 151.012 96.6843C148.114 95.5813 146.243 93.0355 144.912 90.3116C144.818 90.1189 144.533 90.2879 144.627 90.48Z" fill="#5684D6"/>
<path d="M148.433 92.036C150.759 93.8655 153.349 95.2025 156.18 96.0249C156.384 96.0844 156.471 95.7622 156.267 95.703C153.494 94.8974 150.945 93.5918 148.666 91.7999C148.501 91.6696 148.266 91.9041 148.433 92.036Z" fill="#5684D6"/>
<path d="M36.0979 318.144L36.0237 318.104C34.2126 317.128 33.519 314.828 34.482 312.993L138.211 115.398C139.174 113.563 141.444 112.86 143.255 113.836L143.329 113.876C145.14 114.852 145.834 117.152 144.871 118.986L41.1422 316.582C40.1789 318.417 37.909 319.12 36.0979 318.144Z" fill="#4F4A77"/>
<path d="M122.459 138.293C119.668 137.361 118.516 137.571 118.062 138.965C117.608 140.36 118.165 140.812 120.955 141.744C123.745 142.677 126.856 143.451 127.31 142.056C127.764 140.661 125.249 139.226 122.459 138.293Z" fill="#EFB7A8"/>
<path d="M121.751 141.672C118.336 140.53 116.965 140.667 116.51 142.062C116.056 143.457 116.756 143.955 120.171 145.097C123.586 146.238 127.376 147.239 127.83 145.845C128.284 144.45 125.166 142.813 121.751 141.672Z" fill="#EFB7A8"/>
<path d="M121.193 144.66C117.952 143.577 116.642 143.734 116.188 145.129C115.734 146.524 116.394 147.01 119.635 148.093C122.875 149.176 126.476 150.113 126.93 148.719C127.384 147.324 124.434 145.743 121.193 144.66Z" fill="#EFB7A8"/>
<path d="M120.199 147.457C117.87 146.678 116.905 146.864 116.518 148.053C116.13 149.243 116.594 149.624 118.923 150.403C121.252 151.181 123.849 151.823 124.237 150.633C124.624 149.443 122.528 148.235 120.199 147.457Z" fill="#EFB7A8"/>
<path d="M124.64 142.847C122.738 142.304 120.835 141.762 118.933 141.219C118.753 141.168 118.844 140.888 119.024 140.94C120.926 141.482 122.829 142.024 124.731 142.567C124.911 142.618 124.82 142.898 124.64 142.847Z" fill="#E5A895"/>
<path d="M125.317 146.593C122.59 145.974 119.924 145.154 117.319 144.132C117.145 144.064 117.234 143.783 117.409 143.852C120.015 144.874 122.681 145.695 125.408 146.313C125.59 146.354 125.498 146.634 125.317 146.593Z" fill="#E5A895"/>
<path d="M123.739 149.4C121.529 148.886 119.379 148.189 117.285 147.309C117.113 147.237 117.202 146.956 117.375 147.029C119.47 147.909 121.619 148.606 123.83 149.121C124.012 149.163 123.92 149.442 123.739 149.4Z" fill="#E5A895"/>
<path d="M164.566 123.558C164.566 123.558 157.19 123.164 155.196 121.536C146.156 114.157 146.653 114.424 144.397 114.452C139.049 114.517 134.318 118.294 134.443 119.015C134.557 119.669 137.291 118.585 138.06 118.132C139.539 117.262 142.736 118.581 142.736 118.581C142.736 118.581 139.457 119.576 138.15 120.43C137.126 121.1 134.01 123.818 134.136 124.12C134.587 125.206 136.899 123.52 139.139 122.456C140.725 121.702 143.476 121.643 143.476 121.643C143.476 121.643 141.943 122.852 140.643 123.665C139.198 124.569 136.714 127.705 136.956 128.133C137.375 128.871 139.226 127.368 141.325 126.352C143.007 125.539 146.487 125.791 146.487 125.791C146.487 125.791 144.74 127.001 143.929 128.057C143.117 129.113 142.042 131.445 142.513 131.536C143.384 131.703 144.114 130.934 145.569 129.311C146.398 128.387 149.331 128.22 151.029 129.496C151.352 129.739 154.252 133.299 158.479 133.09C162.705 132.882 164.566 123.558 164.566 123.558Z" fill="#E59F89"/>
<path d="M37.7733 321.657L32.2121 318.661C30.9929 318.004 30.5257 316.456 31.1741 315.22L60.0993 260.12C60.7477 258.885 62.276 258.412 63.4952 259.069L69.0564 262.065C70.2757 262.722 70.7428 264.27 70.0944 265.506L41.1693 320.606C40.5209 321.841 38.9928 322.314 37.7733 321.657Z" fill="#ED5D6B"/>
<path d="M62.4574 312.161V322.405H4C4 319.575 5.13139 317.015 6.9617 315.161C8.78939 313.307 11.3183 312.161 14.1112 312.161H62.4574Z" fill="#FE717A"/>
</g>
<defs>
<filter id="filter0_d_11_479" x="0" y="0" width="235" height="330.636" filterUnits="userSpaceOnUse" color-interpolation-filters="sRGB">
<feFlood flood-opacity="0" result="BackgroundImageFix"/>
<feColorMatrix in="SourceAlpha" type="matrix" values="0 0 0 0 0 0 0 0 0 0 0 0 0 0 0 0 0 0 127 0" result="hardAlpha"/>
<feOffset dy="4"/>
<feGaussianBlur stdDeviation="2"/>
<feComposite in2="hardAlpha" operator="out"/>
<feColorMatrix type="matrix" values="0 0 0 0 0 0 0 0 0 0 0 0 0 0 0 0 0 0 0.25 0"/>
<feBlend mode="normal" in2="BackgroundImageFix" result="effect1_dropShadow_11_479"/>
<feBlend mode="normal" in="SourceGraphic" in2="effect1_dropShadow_11_479" result="shape"/>
</filter>
</defs>
</svg>
