<svg width="119" height="170" viewBox="0 0 119 170" fill="none" xmlns="http://www.w3.org/2000/svg">
<path d="M19.4469 136.662L7.91584 135.478L7.02944 136.092L18.1817 138.849L19.4469 136.662Z" fill="#769914" fill-opacity="0.4"/>
<path opacity="0.31" d="M19.4469 136.662L7.91584 135.478L7.02944 136.092L18.1817 138.849L19.4469 136.662Z" fill="#769914" fill-opacity="0.4"/>
<path d="M70.7233 153.143C70.7233 153.143 39.9588 120.261 10.5648 136.765C10.5648 136.765 19.6121 164.501 70.7233 153.143Z" fill="#769914" fill-opacity="0.4"/>
<path opacity="0.31" d="M70.7234 153.143L10.5649 136.765C10.5649 136.765 19.6122 164.501 70.7234 153.143Z" fill="#769914" fill-opacity="0.4"/>
<path d="M19.618 139.624C21.6133 140.254 23.6121 140.87 25.617 141.461C25.7756 141.509 25.9344 141.553 26.0932 141.6L29.1451 144.094C30.214 144.962 31.2715 145.847 32.3559 146.692C34.5092 148.405 36.6694 150.108 38.8736 151.747C36.8372 149.864 34.7566 148.046 32.6685 146.238C31.6322 145.322 30.5697 144.445 29.5179 143.553L27.7869 142.092C29.8478 142.697 31.9108 143.293 33.9778 143.873L36.8006 145.991C37.8845 146.8 38.9577 147.624 40.0566 148.409C42.2393 150.003 44.4285 151.584 46.6595 153.101C44.5878 151.334 42.4739 149.632 40.3535 147.942C39.3004 147.086 38.2223 146.269 37.1544 145.435L35.7919 144.378C36.82 144.664 37.8466 144.954 38.8754 145.238C39.8158 145.491 40.7583 145.737 41.6992 145.988C43.5305 147.207 45.363 148.424 47.2199 149.599C49.2514 150.894 51.2887 152.178 53.3649 153.395C51.436 151.92 49.4683 150.512 47.4947 149.116C46.2697 148.243 45.033 147.39 43.793 146.544C45.5731 147.013 47.3573 147.469 49.1418 147.921C50.7751 148.865 52.4098 149.806 54.0681 150.701C55.8419 151.671 57.6222 152.629 59.4375 153.516C57.7563 152.362 56.0405 151.277 54.3182 150.203C53.4227 149.639 52.5201 149.09 51.6147 148.547C51.8154 148.597 52.0146 148.65 52.2161 148.699C56.6735 149.812 61.1542 150.833 65.6592 151.763C61.2983 150.28 56.9142 148.888 52.5057 147.587C52.3747 147.548 52.2432 147.511 52.1122 147.473C53.1186 147.378 54.1252 147.275 55.132 147.161L58.2177 146.803C59.2459 146.656 60.2744 146.534 61.3016 146.365C60.2705 146.366 59.2405 146.416 58.2098 146.439L55.1198 146.592C53.4878 146.675 51.8569 146.796 50.2258 146.923C48.3476 146.372 46.4682 145.827 44.5849 145.297C46.0547 145.116 47.5248 144.928 48.9938 144.721L52.8036 144.178C54.0718 143.969 55.3417 143.786 56.6095 143.556C55.3337 143.619 54.0611 143.73 52.7862 143.816L48.9667 144.154C46.9037 144.34 44.843 144.563 42.7825 144.795C41.6051 144.466 40.4286 144.134 39.2503 143.809C38.4139 143.584 37.5761 143.365 36.7394 143.141L38.1617 142.914C39.6213 142.673 41.083 142.463 42.5404 142.195L46.9153 141.423C48.3712 141.139 49.8297 140.88 51.2837 140.574C49.8163 140.714 48.3529 140.901 46.8867 141.062L42.496 141.63C41.0313 141.808 39.5716 142.044 38.1091 142.248L35.0562 142.693C32.9794 142.143 30.8994 141.608 28.8163 141.081L30.4086 140.801C31.815 140.544 33.2242 140.32 34.6284 140.038L38.843 139.224C40.2455 138.925 41.6503 138.652 43.0511 138.332C41.6355 138.486 40.2239 138.688 38.8102 138.864L34.5764 139.474C33.1642 139.668 31.7571 139.918 30.3477 140.137L27.1381 140.655C26.7287 140.553 26.3214 140.445 25.9117 140.344C24.1023 139.892 22.2854 139.466 20.468 139.045C22.3451 138.615 24.2212 138.178 26.0925 137.709L29.8282 136.767C31.0696 136.426 32.3148 136.11 33.5532 135.747C32.2918 135.945 31.0372 136.19 29.7795 136.41L26.0164 137.151C23.6315 137.623 21.2537 138.145 18.8764 138.673C16.7456 138.19 14.6104 137.724 12.4686 137.283C14.3153 137.912 16.169 138.515 18.0241 139.112L18.3371 139.401C20.1468 141.068 21.9565 142.735 23.8004 144.357C25.6387 145.986 27.485 147.605 29.3783 149.162C27.6633 147.37 25.9021 145.64 24.1327 143.92C22.6432 142.464 21.1324 141.041 19.618 139.624Z" fill="#769914" fill-opacity="0.4"/>
<path d="M5.95663 121.503L6.92686 134.367L6.3692 135.35L3.98533 122.896L5.95663 121.503Z" fill="#769914" fill-opacity="0.4"/>
<path opacity="0.31" d="M5.95663 121.503L6.92686 134.367L6.3692 135.35L3.98533 122.896L5.95663 121.503Z" fill="#769914" fill-opacity="0.4"/>
<path d="M-8.41577 64.2122C-8.41577 64.2122 20.8333 98.7691 5.79337 131.404C5.79337 131.404 -19.0132 121.096 -8.41577 64.2122Z" fill="#769914" fill-opacity="0.4"/>
<path opacity="0.31" d="M-8.41577 64.2122L5.79337 131.404C5.79337 131.404 -19.0132 121.096 -8.41577 64.2122Z" fill="#769914" fill-opacity="0.4"/>
<path d="M3.30211 121.289C2.75322 119.06 2.21636 116.827 1.70194 114.587C1.66052 114.411 1.62269 114.233 1.58142 114.055L-0.631702 110.633C-1.40211 109.435 -2.18684 108.249 -2.93638 107.034C-4.45633 104.62 -5.96663 102.198 -7.41916 99.728C-5.74694 102.014 -4.13154 104.347 -2.52659 106.689C-1.71368 107.851 -0.935349 109.043 -0.143303 110.223L1.15278 112.164C0.626269 109.862 0.108977 107.557 -0.394447 105.249L-2.27221 102.085C-2.98864 100.871 -3.71986 99.6674 -4.41495 98.4365C-5.82647 95.9913 -7.22819 93.5371 -8.57103 91.0383C-7.00269 93.362 -5.49353 95.7318 -3.99449 98.109C-3.23399 99.2894 -2.50977 100.498 -1.77123 101.695L-0.833566 103.222C-1.08166 102.074 -1.33413 100.928 -1.58005 99.7783C-1.79904 98.7278 -2.01241 97.6757 -2.23 96.6248C-3.30956 94.5736 -4.38616 92.5209 -5.42491 90.4418C-6.57106 88.1673 -7.70646 85.8856 -8.78158 83.5617C-7.47404 85.7238 -6.2268 87.9281 -4.9903 90.1396C-4.21658 91.5116 -3.46156 92.8973 -2.71262 94.2869C-3.11942 92.2983 -3.51373 90.3065 -3.90509 88.3132C-4.73845 86.4847 -5.57026 84.655 -6.35983 82.7999C-7.21534 80.8146 -8.06025 78.8227 -8.84236 76.7921C-7.81981 78.6752 -6.86004 80.5969 -5.91151 82.525C-5.41282 83.5273 -4.92722 84.5384 -4.44738 85.552C-4.49023 85.328 -4.53666 85.1054 -4.57936 84.8806C-5.54164 79.903 -6.42172 74.8997 -7.22083 69.8706C-5.92533 74.7438 -4.71188 79.6419 -3.58019 84.5665C-3.54591 84.7127 -3.51443 84.8597 -3.48077 85.0057C-3.38751 83.8839 -3.28799 82.7635 -3.17661 81.6426L-2.83024 78.2061C-2.69005 77.0613 -2.57331 75.9158 -2.41359 74.7715C-2.42319 75.9212 -2.4756 77.0689 -2.50472 78.218L-2.6666 81.6616C-2.7546 83.4803 -2.87556 85.2971 -3.00261 87.1147C-2.5234 89.2128 -2.04904 91.312 -1.58871 93.4156C-1.41444 91.7779 -1.23454 90.1415 -1.037 88.5053L-0.519034 84.2635C-0.321902 82.8515 -0.14789 81.4374 0.0693918 80.0261C0.00255169 81.4473 -0.107572 82.8658 -0.194408 84.2856L-0.528649 88.5409C-0.711377 90.8392 -0.928785 93.1344 -1.15213 95.4298C-0.867019 96.7448 -0.578478 98.0591 -0.296174 99.3749C-0.100888 100.309 0.0886411 101.245 0.282524 102.179L0.497438 100.596C0.725947 98.9706 0.926168 97.3431 1.17764 95.7208L1.90411 90.8501C2.1709 89.2297 2.41425 87.6057 2.70088 85.9874C2.56393 87.6221 2.38418 89.2519 2.22739 90.8844L1.68342 95.7742C1.51194 97.4051 1.28796 99.0304 1.09336 100.659L0.669849 104.059C1.14676 106.378 1.61027 108.701 2.0666 111.028L2.33062 109.255C2.57169 107.689 2.78418 106.12 3.04822 104.557L3.81235 99.8648C4.09108 98.3038 4.34747 96.7401 4.64604 95.1813C4.49685 96.758 4.30421 98.3296 4.13455 99.904L3.55291 104.618C3.36856 106.191 3.13265 107.757 2.92533 109.327L2.435 112.901C2.52276 113.357 2.6174 113.813 2.70423 114.271C3.09538 116.292 3.46281 118.32 3.82666 120.349C4.2271 118.26 4.63365 116.173 5.07005 114.09L5.94537 109.933C6.26148 108.552 6.55428 107.167 6.89008 105.789C6.70244 107.194 6.47214 108.59 6.26497 109.991L5.57049 114.18C5.12733 116.835 4.64072 119.481 4.14849 122.127C4.56456 124.506 4.96502 126.89 5.34381 129.28C4.79429 127.216 4.26786 125.146 3.74783 123.072L3.49115 122.721C2.01012 120.69 0.529253 118.66 -0.910533 116.59C-2.35701 114.528 -3.79447 112.457 -5.17682 110.335C-3.58326 112.26 -2.04496 114.238 -0.516305 116.224C0.778765 117.893 2.04238 119.59 3.30211 121.289Z" fill="#769914" fill-opacity="0.4"/>
<path d="M23.6106 104.214L22.675 118.243L21.9342 119.195L21.3092 105.34L23.6106 104.214Z" fill="#769914" fill-opacity="0.4"/>
<path opacity="0.31" d="M23.6106 104.214L22.675 118.243L21.9342 119.195L21.3092 105.34L23.6106 104.214Z" fill="#769914" fill-opacity="0.4"/>
<path d="M17.2183 36.348C17.2183 36.348 42.9308 79.0846 22.0166 111.359C22.0166 111.359 -2.69071 95.5631 17.2183 36.348Z" fill="#769914" fill-opacity="0.4"/>
<path opacity="0.31" d="M17.2183 36.348L22.0166 111.359C22.0166 111.359 -2.69071 95.5631 17.2183 36.348Z" fill="#769914" fill-opacity="0.4"/>
<path d="M20.9213 100C20.6798 97.4964 20.4517 94.9919 20.2486 92.4832C20.2316 92.2848 20.2186 92.0864 20.2022 91.888L18.3798 87.7854C17.7463 86.3502 17.0962 84.9246 16.4876 83.4742C15.2455 80.5885 14.0155 77.6952 12.8533 74.7613C14.2763 77.5381 15.6308 80.356 16.9741 83.1803C17.6581 84.5852 18.3006 86.0157 18.9598 87.4352L20.037 89.7706C19.8306 87.1934 19.6341 84.6154 19.4527 82.0347L17.9461 78.2739C17.3725 76.8311 16.7812 75.3977 16.2328 73.9412C15.1102 71.0418 14.0003 68.1355 12.959 65.1911C14.2654 67.9889 15.5032 70.8257 16.7285 73.6685C17.3541 75.0828 17.9366 76.5209 18.5368 77.9496L19.2971 79.7711C19.2093 78.488 19.1168 77.2062 19.0323 75.9231C18.9603 74.7512 18.8952 73.5779 18.8252 72.4057C17.9946 69.9935 17.1669 67.5804 16.3845 65.1454C15.5174 62.4802 14.6628 59.8089 13.8789 57.1043C14.9347 59.6793 15.9189 62.2881 16.8912 64.9032C17.5014 66.5266 18.0894 68.1614 18.6717 69.7987C18.544 67.5817 18.4304 65.3627 18.3203 63.1429C17.7162 61.0168 17.1149 58.8899 16.561 56.7438C15.9579 54.4446 15.3671 52.1407 14.8481 49.8074C15.6437 52.0283 16.3668 54.2784 17.0778 56.5333C17.4533 57.7071 17.8131 58.8864 18.1671 60.0689C18.156 59.8193 18.1407 59.571 18.1296 59.3214C17.8695 53.7819 17.7011 48.2299 17.6225 42.6657C18.2511 48.1557 18.7891 53.6584 19.2369 59.1725C19.2509 59.3364 19.2617 59.5003 19.2756 59.6649C19.5454 58.4753 19.8219 57.2879 20.1111 56.1026L21.0021 52.469C21.3252 51.2637 21.6239 50.0523 21.9682 48.8517C21.7827 50.087 21.5523 51.3124 21.3454 52.5438L20.6482 56.2197C20.2775 58.1605 19.8718 60.0937 19.46 62.0249C19.6474 64.3737 19.8296 66.7228 19.9961 69.0744C20.4301 67.3451 20.8709 65.6173 21.3304 63.8942L22.5264 59.4262C22.9506 57.9434 23.3511 56.4547 23.7963 54.9772C23.5088 56.4943 23.1752 58.0005 22.8666 59.5122L21.8632 64.0281C21.3185 66.4667 20.7384 68.8961 20.1513 71.3247C20.2527 72.7944 20.3576 74.2634 20.4557 75.7332C20.5199 76.7757 20.578 77.8191 20.6403 78.8612L21.1098 77.1972C21.5994 75.4918 22.0603 73.7772 22.5747 72.0787L24.0882 66.9746C24.6179 65.2809 25.1237 63.5798 25.6743 61.8921C25.28 63.6256 24.8401 65.3463 24.425 67.0731L23.1024 72.2329C22.6718 73.9556 22.187 75.6627 21.7318 77.3785L20.7642 80.9578C20.9155 83.5445 21.052 86.133 21.1798 88.7226L21.7296 86.8644C22.2239 85.2249 22.6888 83.5761 23.207 81.9441L24.7322 77.0388C25.2657 75.4116 25.7759 73.7771 26.3304 72.156C25.9312 73.825 25.4879 75.4799 25.0679 77.1422L23.7324 82.1059C23.297 83.7633 22.8082 85.4047 22.349 87.0547L21.2838 90.8083C21.3072 91.3166 21.338 91.8243 21.3599 92.3337C21.4656 94.5828 21.5456 96.8359 21.6209 99.0894C22.3637 96.9168 23.1131 94.7472 23.8936 92.588L25.4549 88.28C26.0004 86.8532 26.5222 85.4182 27.0883 83.9988C26.6756 85.4745 26.2184 86.9346 25.7851 88.4029L24.4103 92.7803C23.5359 95.5536 22.6168 98.3097 21.6907 101.064C21.7684 103.703 21.829 106.346 21.8655 108.991C21.5983 106.665 21.3567 104.336 21.1225 102.007L20.9044 101.58C19.6454 99.114 18.3866 96.6475 17.1768 94.1481C15.9586 91.6543 14.7519 89.1527 13.612 86.6065C15.006 88.9815 16.3341 91.4012 17.6507 93.8279C18.7661 95.8677 19.8453 97.9327 20.9213 100Z" fill="#769914" fill-opacity="0.4"/>
<path d="M35.0971 117.122L22.505 118.052L21.6449 118.871L34.069 119.678L35.0971 117.122Z" fill="#769914" fill-opacity="0.4"/>
<path opacity="0.31" d="M35.0971 117.122L22.505 118.052L21.6449 118.871L34.069 119.678L35.0971 117.122Z" fill="#769914" fill-opacity="0.4"/>
<path d="M95.9232 124.791C95.9232 124.791 57.7936 95.7864 28.6756 118.842C28.6756 118.842 42.6464 146.51 95.9232 124.791Z" fill="#769914" fill-opacity="0.4"/>
<path opacity="0.31" d="M95.9232 124.791L28.6755 118.842C28.6755 118.842 42.6464 146.51 95.9232 124.791Z" fill="#769914" fill-opacity="0.4"/>
<path d="M38.8558 120.154C41.0995 120.443 43.3446 120.717 45.5936 120.964C45.7713 120.984 45.9492 121 46.1269 121.02L49.7926 123.085C51.075 123.802 52.3483 124.538 53.6447 125.228C56.2236 126.636 58.8087 128.03 61.4311 129.349C58.9516 127.741 56.4347 126.208 53.9118 124.688C52.6573 123.914 51.3795 123.187 50.1111 122.44L48.025 121.221C50.3354 121.472 52.6462 121.712 54.9601 121.934L58.3215 123.643C59.6112 124.295 60.8922 124.965 62.1948 125.587C64.7871 126.862 67.3847 128.123 70.0176 129.307C67.5178 127.828 64.9835 126.426 62.4431 125.037C61.1796 124.329 59.8939 123.668 58.6177 122.987L56.99 122.126C58.14 122.234 59.2892 122.347 60.4399 122.452C61.4906 122.542 62.5421 122.624 63.5934 122.711C65.7504 123.656 67.9088 124.598 70.0867 125.49C72.4709 126.477 74.86 127.452 77.2801 128.347C74.9789 127.15 72.6461 126.032 70.3084 124.927C68.8569 124.233 67.3953 123.565 65.9317 122.903C67.9193 123.063 69.909 123.207 71.899 123.348C73.8011 124.038 75.7045 124.725 77.6253 125.36C79.6825 126.052 81.7448 126.728 83.8336 127.325C81.848 126.42 79.8354 125.596 77.8181 124.785C76.7685 124.357 75.7132 123.947 74.655 123.543C74.8785 123.557 75.1016 123.576 75.3252 123.591C80.2923 123.924 85.2709 124.158 90.2617 124.289C85.3423 123.545 80.4107 122.9 75.4675 122.358C75.3205 122.341 75.1735 122.327 75.0264 122.311C76.0953 122.019 77.1632 121.721 78.2289 121.408L81.4951 120.444C82.5788 120.093 83.6678 119.77 84.7475 119.396C83.6377 119.592 82.5365 119.84 81.4306 120.061L78.1278 120.808C76.3841 121.206 74.6469 121.642 72.9107 122.087C70.8056 121.859 68.6991 121.637 66.5914 121.433C68.146 120.962 69.6994 120.486 71.2489 119.987L75.2662 118.69C76.5994 118.229 77.9384 117.795 79.2676 117.31C77.9042 117.619 76.5513 117.978 75.192 118.31L71.1331 119.392C68.9412 119.979 66.757 120.607 64.5745 121.242C63.2571 121.117 61.94 120.988 60.6223 120.867C59.6874 120.787 58.7524 120.714 57.8176 120.636L59.314 120.127C60.8481 119.594 62.3893 119.095 63.917 118.534L68.5075 116.889C70.0309 116.312 71.5611 115.761 73.0797 115.161C71.5217 115.587 69.9751 116.063 68.4219 116.512L63.7829 117.945C62.2337 118.412 60.699 118.938 59.1563 119.432L55.9382 120.482C53.6189 120.293 51.2982 120.12 48.9759 119.957L50.6475 119.358C52.1219 118.82 53.6047 118.315 55.0724 117.751L59.4848 116.09C60.9485 115.507 62.4194 114.952 63.8776 114.347C62.3774 114.778 60.8892 115.26 59.3943 115.714L54.9306 117.163C53.4398 117.635 51.9642 118.167 50.48 118.666L47.1042 119.824C46.6483 119.794 46.1931 119.755 45.7367 119.727C43.7196 119.591 41.6996 119.484 39.679 119.382C41.634 118.571 43.5859 117.753 45.5289 116.901L49.4056 115.195C50.6897 114.598 51.9812 114.027 53.2591 113.408C51.932 113.857 50.6189 114.355 49.2986 114.826L45.3614 116.324C42.8666 117.276 40.3871 118.279 37.9086 119.289C35.5416 119.181 33.1722 119.092 30.8002 119.031C32.8841 119.348 34.9708 119.636 37.0588 119.915L37.44 120.161C39.6421 121.585 41.8443 123.008 44.0767 124.377C46.3039 125.754 48.5384 127.119 50.8132 128.411C48.6941 126.837 46.5341 125.338 44.3676 123.85C42.5455 122.589 40.7018 121.369 38.8558 120.154Z" fill="#769914" fill-opacity="0.4"/>
<path d="M42.6418 92.9142C42.6418 92.9142 16.0475 125.382 3.4368 138.374C1.244 140.633 -1.06559 144.071 -3.70943 145.584L-6.35326 147.097L-4.07904 149.653L-3.27252 147.937C-1.61999 144.418 1.49096 141.853 4.07593 139.092L45.6745 96.323L42.6418 92.9142Z" fill="#769914" fill-opacity="0.4"/>
<path opacity="0.21" d="M42.6418 92.9142C42.6418 92.9142 16.0475 125.382 3.4368 138.374C1.244 140.633 -1.06559 144.071 -3.70943 145.584L-6.35326 147.097L-4.07904 149.653L-3.27252 147.937C-1.61999 144.418 1.49096 141.853 4.07593 139.092L45.6745 96.323L42.6418 92.9142Z" fill="#769914" fill-opacity="0.4"/>
<path d="M113.233 18.2301C113.233 18.2301 42.3865 42.4853 36.9293 102.613C36.9293 102.613 81.2258 109.41 113.233 18.2301Z" fill="#769914" fill-opacity="0.4"/>
<path opacity="0.31" d="M113.233 18.23L36.9292 102.613C36.9292 102.613 81.2257 109.41 113.233 18.23Z" fill="#769914" fill-opacity="0.4"/>
<path d="M48.9226 90.2173C51.5657 87.485 54.195 84.7373 56.7974 81.96C57.0036 81.7415 57.2069 81.518 57.413 81.2995L63.4445 78.301C65.55 77.2475 67.6659 76.2242 69.7554 75.1266C73.9503 72.9761 78.1385 70.805 82.2838 68.5154C77.9754 70.3482 73.7099 72.3003 69.4516 74.2731C67.3144 75.2379 65.2038 76.2756 63.0821 77.2835L59.6022 78.9487C62.2728 76.0926 64.9336 73.2247 67.5775 70.3385L72.911 67.4202C74.9526 66.2959 77.0055 65.2014 79.0295 64.0349C83.0951 61.7441 87.1527 59.4331 91.1638 57.005C86.9742 58.9839 82.8312 61.08 78.6955 63.1962C76.6192 64.2332 74.5719 65.3415 72.5131 66.4215L69.8939 67.8036C71.2053 66.3666 72.5222 64.9346 73.8311 63.4941C75.0197 62.1728 76.2017 60.8427 77.3877 59.5185C80.6472 57.5065 83.9039 55.4894 87.1278 53.4003C90.6689 51.1243 94.2005 48.8285 97.6797 46.4187C93.9989 48.392 90.3714 50.4788 86.7519 52.5857C84.4968 53.887 82.2586 55.2252 80.0244 56.5717C82.2625 54.0625 84.4865 51.537 86.7061 49.0076C89.4264 47.1015 92.1445 45.1906 94.8237 43.2085C97.7058 41.095 100.578 38.9632 103.391 36.7211C100.354 38.5417 97.3746 40.4724 94.4058 42.4216C92.8543 43.4307 91.3155 44.4624 89.7812 45.504C90.0288 45.2186 90.2818 44.938 90.5288 44.6525C96.0513 38.3224 101.477 31.8841 106.806 25.3371C100.891 31.2258 95.0723 37.2221 89.3498 43.3278C89.1788 43.5082 89.0115 43.6931 88.841 43.8743C89.6385 42.1778 90.4274 40.4756 91.198 38.7644L93.5553 33.5121C94.3049 31.741 95.089 29.9891 95.8087 28.2018C94.867 29.8654 93.9889 31.5651 93.0764 33.2454L90.448 38.3471C89.0632 41.043 87.7274 43.7666 86.4004 46.495C83.967 49.0981 81.5392 51.7083 79.1277 54.3368C80.2375 51.8267 81.3392 49.3118 82.4132 46.7827L85.1929 40.2207C86.0825 38.0144 87.0069 35.8261 87.8667 33.6038C86.7816 35.7091 85.7617 37.8486 84.7065 39.97L81.6519 46.3902C80.0054 49.8599 78.4109 53.3557 76.8251 56.8563C75.3216 58.5015 73.8137 60.1428 72.3138 61.7924C71.256 62.9674 70.2055 64.1506 69.1499 65.3276L70.1565 62.8583C71.1778 60.3185 72.2425 57.7993 73.2281 55.2428L76.2285 47.5934C77.1916 45.0261 78.1892 42.4753 79.1219 39.894C77.9604 42.3678 76.8648 44.873 75.7343 47.3609L72.4541 54.8786C71.3461 57.3773 70.317 59.914 69.2447 62.4293L67.0295 67.6964C64.4154 70.6208 61.8164 73.5627 59.2268 76.5154L60.3203 73.7316C61.2743 71.2664 62.2725 68.8204 63.1906 66.3393L65.9895 58.9145C66.8851 56.4225 67.8157 53.9471 68.6804 51.441C67.585 53.8429 66.5564 56.2749 65.4921 58.6902L62.4118 65.988C61.3701 68.4142 60.4083 70.8762 59.4031 73.3184L57.1396 78.8944C56.6329 79.476 56.1189 80.0494 55.6139 80.6321C53.3712 83.2015 51.1563 85.8028 48.9462 88.4088C50.1053 85.0506 51.2547 81.6887 52.3571 78.3085L54.5504 71.5581C55.2434 69.2928 55.9718 67.0418 56.6332 64.7652C55.7361 66.9514 54.9072 69.1642 54.0416 71.3624L51.5606 78.0021C49.9925 82.2119 48.4939 86.4487 47.0048 90.6898C44.4284 93.7531 41.8703 96.8381 39.3382 99.9509C41.8446 97.4574 44.3243 94.9338 46.7953 92.4016L47.4568 92.1193C51.2773 90.4871 55.098 88.8542 58.8914 87.1305C62.6891 85.4224 66.4804 83.6931 70.2353 81.8422C66.34 83.2257 62.4809 84.7314 58.6282 86.2585C55.3792 87.5284 52.1501 88.869 48.9226 90.2173Z" fill="#769914" fill-opacity="0.4"/>
</svg>
